<?xml version="1.0" encoding="utf-8"?>
<!-- Generator: Adobe Illustrator 21.0.0, SVG Export Plug-In . SVG Version: 6.00 Build 0)  -->
<svg version="1.1" id="Laag_1" xmlns="http://www.w3.org/2000/svg" xmlns:xlink="http://www.w3.org/1999/xlink" x="0px" y="0px"
	 viewBox="0 0 148.5 139.5" style="enable-background:new 0 0 148.5 139.5;" xml:space="preserve">
<style type="text/css">
	.st0{fill:#FFFFFF;}
</style>
<g>
	<path class="st0" d="M139.7,38.4l-19.1-29c-2.6-4.1-8-5.3-12.1-2.7L34.8,52.5c-0.4,0.3-0.8,0.6-1.2,1L6.6,70.7l16.6,10.5L6.6,91.7
		l16.6,10.5L6.6,112.8l16.6,10.5L6.7,133.7h33.1v-0.1h64.1l0.2-62.4L137,50.4C141.1,47.8,142.3,42.5,139.7,38.4z"/>
	<g>
		<circle cx="63.3" cy="54.9" r="4.4"/>
		<circle cx="48" cy="126" r="2.2"/>
		<circle cx="56.7" cy="126" r="2.2"/>
		<circle cx="65.4" cy="126" r="2.2"/>
		<circle cx="74.2" cy="126" r="2.2"/>
		<circle cx="82.9" cy="126" r="2.2"/>
		<circle cx="91.6" cy="126" r="2.2"/>
		<circle cx="96" cy="117.3" r="2.2"/>
		<circle cx="48" cy="108.6" r="2.2"/>
		<circle cx="56.7" cy="108.6" r="2.2"/>
		<circle cx="65.4" cy="108.6" r="2.2"/>
		<circle cx="74.2" cy="108.6" r="2.2"/>
		<circle cx="82.9" cy="108.6" r="2.2"/>
		<circle cx="52.3" cy="117.3" r="2.2"/>
		<circle cx="61.1" cy="117.3" r="2.2"/>
		<circle cx="69.8" cy="117.3" r="2.2"/>
		<circle cx="78.5" cy="117.3" r="2.2"/>
		<circle cx="87.3" cy="117.3" r="2.2"/>
		<circle cx="48" cy="91.1" r="2.2"/>
		<circle cx="52.3" cy="99.8" r="2.2"/>
		<circle cx="61.1" cy="99.8" r="2.2"/>
		<path d="M142.7,36.4l-19-29c-2.3-3.6-6.2-5.7-10.5-5.7c-2.3,0-4.6,0.7-6.6,1.9L57.9,34.2L43.1,4.6c-0.8-1.5-2.4-2.3-4.1-1.9
			c-1.6,0.4-2.8,1.9-2.8,3.5v41.5l0.2-0.1L4.6,67.6c-1.1,0.7-1.7,1.8-1.7,3.1c0,1.2,0.6,2.4,1.7,3.1l11.8,7.4L4.6,88.7
			c-1.1,0.7-1.7,1.8-1.7,3.1c0,1.2,0.6,2.4,1.7,3.1l11.8,7.4l-11.8,7.5c-1.1,0.7-1.7,1.8-1.7,3.1c0,1.3,0.6,2.4,1.7,3.1l11.8,7.4
			l-11.6,7.4c-1.4,0.9-2,2.5-1.5,4.1c0.5,1.6,1.9,2.6,3.5,2.6l97.2-0.1c2,0,3.6-1.6,3.6-3.6l0.2-60.4l31.2-19.7
			c2.8-1.8,4.7-4.5,5.4-7.7C145.1,42.5,144.5,39.2,142.7,36.4z M36.2,130.1h-17l5.9-3.8c1.1-0.7,1.7-1.8,1.7-3.1
			c0-1.3-0.6-2.4-1.7-3.1l-11.8-7.4l11.8-7.5c1.1-0.7,1.7-1.8,1.7-3.1c0-1.2-0.6-2.4-1.7-3.1l-11.8-7.4l11.8-7.5
			c1.1-0.7,1.7-1.8,1.7-3.1c0-1.2-0.6-2.4-1.7-3.1l-11.8-7.4l22.8-14.5v2.3c0,0,0,0,0,0V130.1z M137.3,44.2
			c-0.3,1.3-1.1,2.5-2.2,3.2l-32.9,20.8c-1,0.7-1.7,1.8-1.7,3.1l-0.2,58.8H43.5V51.4l67-41.6c2.3-1.5,5.6-0.7,7.1,1.6l8.8,13.5
			l-25.2,16c-1.7,1.1-2.2,3.3-1.1,5c0.7,1.1,1.9,1.7,3.1,1.7c0.7,0,1.3-0.2,2-0.6l25.3-16.1l6.2,9.4
			C137.3,41.5,137.6,42.8,137.3,44.2z"/>
	</g>
</g>
</svg>
