<?xml version="1.0" encoding="utf-8"?>
<!-- Generator: Adobe Illustrator 21.0.0, SVG Export Plug-In . SVG Version: 6.00 Build 0)  -->
<svg version="1.1" id="Laag_1" xmlns="http://www.w3.org/2000/svg" xmlns:xlink="http://www.w3.org/1999/xlink" x="0px" y="0px"
	 viewBox="0 0 146.7 125.7" style="enable-background:new 0 0 146.7 125.7;" xml:space="preserve">
<style type="text/css">
	.st0{fill:#FFFFFF;}
</style>
<g>
	<path class="st0" d="M109.3,49.9l9.7-6.1L39.5,10.4L8.9,83c-0.5,1.3-0.5,2.7,0,4c0.5,1.3,1.5,2.3,2.8,2.8L75,116.4
		c2.6,1.1,5.7-0.2,6.8-2.8l26.3-62.4C108.3,50.7,108.8,50.2,109.3,49.9z"/>
	<g>
		<ellipse transform="matrix(0.3868 -0.9222 0.9222 0.3868 -71.1526 71.6551)" cx="18.3" cy="89.3" rx="1.8" ry="1.8"/>
		<ellipse transform="matrix(0.3879 -0.9217 0.9217 0.3879 -69.659 79.2692)" cx="24.9" cy="92.1" rx="1.8" ry="1.8"/>
		<path d="M71,95.9c0.4-0.9,0-1.9-1-2.3c-0.9-0.4-2,0-2.3,0.9c-0.4,0.9,0,1.9,1,2.3C69.6,97.3,70.7,96.8,71,95.9z"/>
		<ellipse transform="matrix(0.3868 -0.9222 0.9222 0.3868 -43.7882 130.1322)" cx="76" cy="98" rx="1.8" ry="1.8"/>
		<ellipse transform="matrix(0.388 -0.9217 0.9217 0.388 -42.3582 137.6971)" cx="82.5" cy="100.7" rx="1.8" ry="1.8"/>
		<path d="M24.9,69c0.4-0.9,0-1.9-1-2.3c-0.9-0.4-1.9,0-2.3,0.9c-0.4,0.9,0,1.9,0.9,2.3C23.5,70.3,24.5,69.9,24.9,69z"/>
		<path d="M31.5,71.7c0.4-0.9,0-1.9-0.9-2.3c-0.9-0.4-1.9,0-2.3,1c-0.4,0.9,0,1.9,0.9,2.3C30.1,73.1,31.1,72.6,31.5,71.7z"/>
		<ellipse transform="matrix(0.3875 -0.9219 0.9219 0.3875 -28.3603 127.0934)" cx="81.5" cy="84.9" rx="1.8" ry="1.8"/>
		<ellipse transform="matrix(0.3877 -0.9218 0.9218 0.3877 -26.8966 134.7915)" cx="88" cy="87.6" rx="1.8" ry="1.8"/>
		<ellipse transform="matrix(0.388 -0.9217 0.9217 0.388 -33.2495 60.3226)" cx="28.8" cy="55.2" rx="1.8" ry="1.8"/>
		<path d="M37,58.6c0.4-0.9,0-2-0.9-2.3c-0.9-0.4-1.9,0-2.3,0.9c-0.4,0.9,0,1.9,0.9,2.3C35.6,60,36.6,59.5,37,58.6z"/>
		<ellipse transform="matrix(0.3879 -0.9217 0.9217 0.3879 -36.8408 124.6496)" cx="75.4" cy="90.1" rx="1.8" ry="1.8"/>
		<path d="M80.3,92.1c-0.4,0.9,0,1.9,1,2.3c0.9,0.4,1.9,0,2.3-1c0.4-0.9,0-1.9-0.9-2.3C81.8,90.8,80.7,91.2,80.3,92.1z"/>
		<ellipse transform="matrix(0.3871 -0.9221 0.9221 0.3871 -41.7111 57.9973)" cx="22.8" cy="60.4" rx="1.8" ry="1.8"/>
		<ellipse transform="matrix(0.3884 -0.9215 0.9215 0.3884 -40.2393 65.6234)" cx="29.3" cy="63.1" rx="1.8" ry="1.8"/>
		<path d="M36.6,64.2c-0.9-0.4-1.9,0-2.3,1c-0.4,0.9,0,1.9,0.9,2.3c0.9,0.4,1.9,0,2.3-0.9C37.9,65.7,37.5,64.6,36.6,64.2z"/>
		<ellipse transform="matrix(0.3868 -0.9221 0.9221 0.3868 -64.162 66.3092)" cx="17.8" cy="81.4" rx="1.8" ry="1.8"/>
		<ellipse transform="matrix(0.388 -0.9217 0.9217 0.388 -62.6714 73.9304)" cx="24.3" cy="84.2" rx="1.8" ry="1.8"/>
		<ellipse transform="matrix(0.3874 -0.9219 0.9219 0.3874 -52.2716 127.6618)" cx="69.9" cy="103.2" rx="1.8" ry="1.8"/>
		<path d="M18.9,74.2c0.4-0.9,0-1.9-1-2.3c-0.9-0.4-1.9,0-2.3,0.9c-0.4,0.9,0,1.9,1,2.3C17.5,75.5,18.5,75.1,18.9,74.2z"/>
		<ellipse transform="matrix(0.3866 -0.9222 0.9222 0.3866 -55.6944 68.7155)" cx="23.8" cy="76.2" rx="1.8" ry="1.8"/>
		<path d="M32,79.7c0.4-0.9,0-1.9-0.9-2.3c-0.9-0.4-1.9,0-2.3,1c-0.4,0.9,0,1.9,1,2.3C30.6,81,31.6,80.6,32,79.7z"/>
		<ellipse transform="matrix(0.3885 -0.9215 0.9215 0.3885 -12.9645 124.0381)" cx="87" cy="71.8" rx="1.8" ry="1.8"/>
		<path d="M91.9,73.9c-0.4,0.9,0,1.9,1,2.3c0.9,0.4,1.9,0,2.3-0.9c0.4-0.9,0-1.9-0.9-2.3C93.3,72.5,92.3,72.9,91.9,73.9z"/>
		<ellipse transform="matrix(0.3873 -0.922 0.922 0.3873 -17.7926 57.4199)" cx="34.3" cy="42.1" rx="1.8" ry="1.8"/>
		<ellipse transform="matrix(0.3885 -0.9215 0.9215 0.3885 -16.3446 65.0753)" cx="40.9" cy="44.9" rx="1.8" ry="1.8"/>
		<path d="M80.3,78.6c0.9,0.4,1.9,0,2.3-0.9c0.4-0.9,0-1.9-1-2.3c-0.9-0.4-1.9,0-2.3,1C78.9,77.2,79.3,78.2,80.3,78.6z"/>
		<path d="M85.9,79c-0.4,0.9,0,1.9,0.9,2.3c0.9,0.4,1.9,0,2.3-1c0.4-0.9,0-1.9-1-2.3C87.3,77.7,86.2,78.1,85.9,79z"/>
		<path d="M29.9,48c0.4-0.9,0-1.9-1-2.3c-0.9-0.4-1.9,0.1-2.3,1c-0.4,0.9,0,1.9,0.9,2.3C28.5,49.3,29.5,48.9,29.9,48z"/>
		<ellipse transform="matrix(0.388 -0.9217 0.9217 0.388 -24.7913 62.7134)" cx="34.8" cy="50" rx="1.8" ry="1.8"/>
		<ellipse transform="matrix(0.3874 -0.9219 0.9219 0.3874 -23.3086 70.4798)" cx="41.4" cy="52.8" rx="1.8" ry="1.8"/>
		<ellipse transform="matrix(0.3879 -0.9217 0.9217 0.3879 2.5122 121.152)" cx="92.5" cy="58.7" rx="1.8" ry="1.8"/>
		<ellipse transform="matrix(0.3868 -0.9221 0.9221 0.3868 4.0614 128.9872)" cx="99" cy="61.4" rx="1.8" ry="1.8"/>
		<ellipse transform="matrix(0.3877 -0.9218 0.9218 0.3877 -2.352 54.4529)" cx="39.8" cy="29" rx="1.8" ry="1.8"/>
		<ellipse transform="matrix(0.3868 -0.9221 0.9221 0.3868 -0.8512 62.2213)" cx="46.4" cy="31.8" rx="1.8" ry="1.8"/>
		<ellipse transform="matrix(0.3879 -0.9217 0.9217 0.3879 -61.2016 81.66)" cx="30.9" cy="86.9" rx="1.8" ry="1.8"/>
		<ellipse transform="matrix(0.3875 -0.9219 0.9219 0.3875 -5.9213 118.8063)" cx="86.4" cy="63.9" rx="1.8" ry="1.8"/>
		<ellipse transform="matrix(0.388 -0.9217 0.9217 0.388 -4.4791 126.4807)" cx="93" cy="66.6" rx="1.8" ry="1.8"/>
		<ellipse transform="matrix(0.388 -0.9217 0.9217 0.388 -10.8164 52.0495)" cx="33.8" cy="34.2" rx="1.8" ry="1.8"/>
		<ellipse transform="matrix(0.3879 -0.9217 0.9217 0.3879 -9.3427 59.7751)" cx="40.3" cy="36.9" rx="1.8" ry="1.8"/>
		<ellipse transform="matrix(0.3884 -0.9215 0.9215 0.3884 -7.8867 67.471)" cx="46.9" cy="39.7" rx="1.8" ry="1.8"/>
		<path d="M91.3,52.4c0.9,0.4,1.9,0,2.3-0.9c0.4-0.9,0-1.9-0.9-2.3c-0.9-0.4-1.9,0.1-2.3,1C89.9,51,90.4,52,91.3,52.4z"/>
		<ellipse transform="matrix(0.3884 -0.9215 0.9215 0.3884 10.9361 123.5013)" cx="98.5" cy="53.5" rx="1.8" ry="1.8"/>
		<path d="M96.3,44.9c-0.4,0.9,0,1.9,0.9,2.3c0.9,0.4,1.9,0,2.3-0.9c0.4-0.9-0.1-1.9-0.9-2.3C97.8,43.6,96.7,44,96.3,44.9z"/>
		<path d="M102.9,47.6c-0.4,0.9,0,1.9,0.9,2.3c0.9,0.4,1.9,0,2.3-0.9c0.4-0.9,0-1.9-0.9-2.3C104.3,46.3,103.3,46.7,102.9,47.6z"/>
		<path d="M96.6,39.6c0.9,0.4,1.9,0,2.3-0.9c0.4-0.9,0-1.9-0.9-2.3c-0.9-0.4-1.9,0-2.3,1S95.7,39.3,96.6,39.6z"/>
		<path d="M103.2,42.4c0.9,0.4,1.9,0,2.3-1c0.4-0.9,0-1.9-1-2.3c-0.9-0.4-1.9,0-2.3,0.9C101.9,41,102.3,42,103.2,42.4z"/>
		<ellipse transform="matrix(0.3879 -0.9217 0.9217 0.3879 27.6229 128.958)" cx="110.9" cy="43.7" rx="1.8" ry="1.8"/>
		<path d="M41,16.4c0.9,0.4,2,0,2.3-0.9c0.4-0.9,0-1.9-1-2.3c-0.9-0.4-1.9,0-2.3,0.9C39.7,14.9,40.1,16,41,16.4z"/>
		<path d="M47.6,19.1c0.9,0.4,2,0,2.3-1c0.4-0.9,0-1.9-1-2.3c-0.9-0.4-1.9,0-2.3,0.9C46.2,17.7,46.6,18.7,47.6,19.1z"/>
		<ellipse transform="matrix(0.3874 -0.9219 0.9219 0.3874 14.9352 62.9048)" cx="54.8" cy="20.2" rx="1.8" ry="1.8"/>
		<path d="M138,45.5c-5.7-11.3-18.3-24.3-43.8-22.9C77.7,23.4,39.1,3.8,39.1,3.8c-1.5-0.6-3.2,0.1-3.9,1.6l-4.3,10.2L27,13.9
			c-5.6-2.2-17.7-3-22.9,9.4c-5.2,12.4,3.8,20.4,9.4,23l3.8,1.6L3.5,80.7c-1.2,2.7-1.2,5.8,0,8.5s3.3,4.9,6,6.1l63.3,26.6
			c1.4,0.6,2.8,0.9,4.3,0.9c4.5,0,8.5-2.7,10.3-6.8l25.6-60.6c0.5-1.2,2-1.8,3.2-1.3c1.3,0.5,1.8,2,1.3,3.2c0,0-3.8,9-3.8,13.5
			c0,8.5,6.9,15.3,15.3,15.4h0c8.5,0,15.4-6.9,15.4-15.4C144.3,64.7,142,53.4,138,45.5z M15.9,40.8c-0.4-0.2-10.6-5-6.3-15.2
			c4.2-10,14.2-6.6,15.2-6.2l3.8,1.6l-9,21.4L15.9,40.8z M109.3,49.9c-0.5,0.3-0.9,0.8-1.1,1.4l-26.3,62.4c-1.1,2.6-4.2,3.9-6.8,2.8
			L11.7,89.8c-1.3-0.5-2.3-1.5-2.8-2.8c-0.5-1.3-0.5-2.7,0-4l14.9-35.3c0-0.1,0.1-0.1,0.1-0.2c0-0.1,0-0.1,0-0.2l10.1-23.9l41,17.2
			c1.5,0.6,3.2-0.1,3.9-1.6c0.6-1.5-0.1-3.2-1.6-3.9l-41-17.2l3.1-7.5l79.4,33.4L109.3,49.9z"/>
	</g>
</g>
</svg>
