<?xml version="1.0" encoding="utf-8"?>
<!-- Generator: Adobe Illustrator 21.0.0, SVG Export Plug-In . SVG Version: 6.00 Build 0)  -->
<svg version="1.1" id="Laag_1" xmlns="http://www.w3.org/2000/svg" xmlns:xlink="http://www.w3.org/1999/xlink" x="0px" y="0px"
	 viewBox="0 0 149 147.1" style="enable-background:new 0 0 149 147.1;" xml:space="preserve">
<style type="text/css">
	.st0{fill:#FFFFFF;}
</style>
<g>
	<path class="st0" d="M15.7,93.8c3.6,11.2,13.4,11.3,13.4,11.3L80,50.5L65.4,38.1L15.7,93.8z"/>
	<ellipse transform="matrix(0.9759 -0.2182 0.2182 0.9759 -3.916 19.7238)" class="st0" cx="87.3" cy="27.6" rx="21.4" ry="21.4"/>
	<ellipse cx="87.3" cy="43.7" rx="2" ry="2"/>
	<ellipse cx="75.2" cy="35.6" rx="2" ry="2"/>
	<ellipse cx="83.3" cy="35.6" rx="2" ry="2"/>
	<ellipse cx="91.4" cy="35.6" rx="2" ry="2"/>
	<ellipse cx="99.5" cy="35.6" rx="2" ry="2"/>
	<ellipse cx="87.3" cy="11.5" rx="2" ry="2"/>
	<ellipse cx="71.2" cy="27.6" rx="2" ry="2"/>
	<ellipse cx="79.3" cy="27.6" rx="2" ry="2"/>
	<ellipse cx="87.3" cy="27.6" rx="2" ry="2"/>
	<ellipse cx="95.4" cy="27.6" rx="2" ry="2"/>
	<path d="M103.5,29.6c1.1,0,2-0.9,2-2c0-1.1-0.9-2-2-2c-1.1,0-2,0.9-2,2C101.5,28.7,102.4,29.6,103.5,29.6z"/>
	<ellipse cx="75.2" cy="19.6" rx="2" ry="2"/>
	<ellipse cx="83.3" cy="19.6" rx="2" ry="2"/>
	<ellipse cx="91.4" cy="19.6" rx="2" ry="2"/>
	<ellipse cx="99.5" cy="19.6" rx="2" ry="2"/>
	<path d="M140.9,78.7c-2.3-2.9-5.5-5.3-9.9-7.5c-4.6-2.3-10.4-3.1-15.9-2c-6.1,1.2-11.1,4.4-14.2,9
		c-4.5,6.7-2.3,15.9-0.5,24.1c1,4.4,2,8.9,1.7,11.8c-0.3,3.5-1.6,7.2-3.5,10.6c-2,3.4-4.6,6.3-7.3,8.1c-3.5,2.3-7,2.8-10.5,1.7
		c-2.9-0.9-5.5-5.8-7.9-10.1c-2.8-5.1-5.8-10.4-10.5-13.3c-4.6-2.8-9.2-3.5-13.7-2.2c-6.2,1.8-11.5,7.3-16.2,16.8
		c-1.6,3.2-4,4.2-5.8,4.5c-3.1,0.6-6.7-0.6-9.4-3.1c-2.4-2.3-2.4-5.6-2.1-7.4c0.3-2.5,1.4-5,2.9-6.9c0.4-0.1,0.7-0.2,1-0.5l5.4-5.5
		c2.6,0.9,4.5,1,4.7,1h0c0.8,0,1.6-0.3,2.2-0.9l47.7-51.2c0.1,0.1,0.1,0.2,0.2,0.2c0.8,0,1.6-0.2,2.2-0.8l3.2-3.4c1,0.1,2,0.2,3,0.2
		c1.8,0,3.6-0.2,5.3-0.6c6.4-1.4,11.8-5.2,15.3-10.7c3.5-5.5,4.6-12,3.2-18.4c-1.2-5.4-4.3-10.3-8.6-13.8c-4.3-3.4-9.7-5.3-15.1-5.3
		c-1.8,0-3.6,0.2-5.3,0.6c-6.4,1.4-11.8,5.2-15.3,10.7c-3.3,5.3-4.5,11.5-3.4,17.6c0,0-0.1,0.1-0.1,0.1l-3,4.7
		c-0.4,0.7-0.6,1.6-0.4,2.4c0,0.1,0.1,0.2,0.1,0.3L13.5,91.8c-0.7,0.8-0.9,1.9-0.6,2.9c0.5,1.4,1,2.7,1.6,3.8l-4.6,6.1
		c-0.3,0.4-0.5,1-0.4,1.5c0,0.1,0.1,0.6,0.2,1.2c-2.3,3.2-3.9,7-4.5,11.1c-0.8,6.3,1.1,12.1,5.2,16c5,4.6,11.7,6.7,17.9,5.6
		c5.7-1,10.2-4.5,12.9-9.8c4.2-8.5,7.8-11.1,10.1-11.7c1.1-0.3,2.9-0.6,5.8,1.2c2.5,1.5,4.7,5.6,6.9,9.6c3.3,5.9,7,12.6,13.5,14.7
		c2.2,0.7,4.4,1.1,6.6,1.1c4.2,0,8.4-1.3,12.3-3.9c8.1-5.3,14.3-15.8,15.3-26c0.4-4.5-0.7-9.6-1.9-15c-1.4-6.2-3-13.3-0.9-16.4
		c3.5-5.3,12.1-6.3,17.4-3.6c6.4,3.2,8.8,6.4,9.4,12.2c0.3,2.7,2.7,4.7,5.4,4.4c2.7-0.3,4.7-2.7,4.4-5.4
		C145.2,86.2,143.6,82.1,140.9,78.7z M70.7,53.2c0.6,0.3,1.1,0.6,1.7,0.9l-44.5,47.8c-2.1-0.4-6.3-1.9-8.7-7.4l43.6-48.8
		C64.7,48.7,67.4,51.2,70.7,53.2z M71.8,17.7c2.6-4.2,6.7-7,11.5-8.1c1.3-0.3,2.7-0.4,4-0.4c4.1,0,8.2,1.4,11.4,4
		c3.3,2.6,5.6,6.2,6.5,10.4c1.1,4.8,0.2,9.7-2.4,13.9c-2.6,4.2-6.7,7-11.5,8.1c-1.3,0.3-2.7,0.4-4,0.4c-4.1,0-8.2-1.4-11.4-4
		c-0.5-0.4-1-0.9-1.5-1.3c-0.3-0.4-0.7-0.8-1-1.2c-0.6-0.7-1.1-1.4-1.6-2c-1.1-1.8-1.9-3.7-2.4-5.8C68.3,26.8,69.2,21.9,71.8,17.7z"
		/>
</g>
</svg>
