<?xml version="1.0" encoding="utf-8"?>
<!-- Generator: Adobe Illustrator 21.0.0, SVG Export Plug-In . SVG Version: 6.00 Build 0)  -->
<svg version="1.1" id="Laag_1" xmlns="http://www.w3.org/2000/svg" xmlns:xlink="http://www.w3.org/1999/xlink" x="0px" y="0px"
	 viewBox="0 0 148 150.6" style="enable-background:new 0 0 148 150.6;" xml:space="preserve">
<style type="text/css">
	.st0{fill:#FFFFFF;}
</style>
<g>
	<path class="st0" d="M92.7,74.6l40-40c0,0,10-27.4,9.5-27.9c-0.5-0.5-27.8,9.6-27.8,9.6l-40,40l-40-40c0,0-27.4-10-27.9-9.5
		c-0.5,0.5,9.6,27.8,9.6,27.8l40,40L6.5,124.1c1.4,4.8,4,8.6,6.9,11.4c2.7,3,6.6,5.5,11.4,6.9l49.6-49.6l49.5,49.5
		c4.8-1.4,8.6-4,11.4-6.9c3-2.7,5.5-6.6,6.9-11.4L92.7,74.6z"/>
	<g>
		<ellipse transform="matrix(0.7071 -0.7071 0.7071 0.7071 -73.6354 61.8781)" cx="37.9" cy="119.8" rx="1.8" ry="1.8"/>
		<ellipse transform="matrix(0.7075 -0.7067 0.7067 0.7075 -68.5085 63.9387)" cx="43" cy="114.7" rx="1.8" ry="1.8"/>
		<ellipse transform="matrix(0.7068 -0.7074 0.7074 0.7068 -63.4518 66.1625)" cx="48.1" cy="109.6" rx="1.8" ry="1.8"/>
		<ellipse transform="matrix(0.7071 -0.7071 0.7071 0.7071 -58.3301 68.2301)" cx="53.2" cy="104.5" rx="1.8" ry="1.8"/>
		<ellipse transform="matrix(0.7071 -0.7071 0.7071 0.7071 -53.2241 70.3329)" cx="58.3" cy="99.4" rx="1.8" ry="1.8"/>
		<ellipse transform="matrix(0.7071 -0.7071 0.7071 0.7071 -48.1218 72.4511)" cx="63.4" cy="94.3" rx="1.8" ry="1.8"/>
		<ellipse transform="matrix(0.7071 -0.7071 0.7071 0.7071 -74.0788 55.729)" cx="30.2" cy="117.3" rx="1.8" ry="1.8"/>
		<ellipse transform="matrix(0.7071 -0.7071 0.7071 0.7071 -68.9691 57.832)" cx="35.3" cy="112.2" rx="1.8" ry="1.8"/>
		<ellipse transform="matrix(0.7071 -0.7071 0.7071 0.7071 -63.867 59.9455)" cx="40.4" cy="107.1" rx="1.8" ry="1.8"/>
		<ellipse transform="matrix(0.7071 -0.7071 0.7071 0.7071 -58.7687 62.0688)" cx="45.5" cy="102" rx="1.8" ry="1.8"/>
		<ellipse transform="matrix(0.7071 -0.7071 0.7071 0.7071 -53.6641 64.1831)" cx="50.6" cy="96.9" rx="1.8" ry="1.8"/>
		<ellipse transform="matrix(0.7071 -0.7071 0.7071 0.7071 -48.5583 66.287)" cx="55.7" cy="91.8" rx="1.8" ry="1.8"/>
		<ellipse transform="matrix(0.7071 -0.7071 0.7071 0.7071 -43.4561 68.4005)" cx="60.8" cy="86.7" rx="1.8" ry="1.8"/>
		<ellipse transform="matrix(0.7071 -0.7071 0.7071 0.7071 -17.504 85.1344)" cx="94" cy="63.7" rx="1.8" ry="1.8"/>
		<ellipse transform="matrix(0.7071 -0.7071 0.7071 0.7071 -12.4028 87.2431)" cx="99.1" cy="58.6" rx="1.8" ry="1.8"/>
		<ellipse transform="matrix(0.7068 -0.7074 0.7074 0.7068 -7.2829 89.4088)" cx="104.2" cy="53.5" rx="1.8" ry="1.8"/>
		<ellipse transform="matrix(0.7071 -0.7071 0.7071 0.7071 -2.1948 91.4746)" cx="109.3" cy="48.4" rx="1.8" ry="1.8"/>
		<ellipse transform="matrix(0.7071 -0.7071 0.7071 0.7071 -17.9423 78.9739)" cx="86.4" cy="61.1" rx="1.8" ry="1.8"/>
		<ellipse transform="matrix(0.7071 -0.7071 0.7071 0.7071 -12.8385 81.0928)" cx="91.5" cy="56" rx="1.8" ry="1.8"/>
		<ellipse transform="matrix(0.7071 -0.7071 0.7071 0.7071 -7.7365 83.197)" cx="96.6" cy="50.9" rx="1.8" ry="1.8"/>
		<ellipse transform="matrix(0.7071 -0.7071 0.7071 0.7071 -2.6344 85.3106)" cx="101.7" cy="45.8" rx="1.8" ry="1.8"/>
		<ellipse transform="matrix(0.7071 -0.7071 0.7071 0.7071 2.4678 87.4241)" cx="106.8" cy="40.7" rx="1.8" ry="1.8"/>
		<ellipse transform="matrix(0.7074 -0.7068 0.7068 0.7074 2.8843 93.5364)" cx="114.4" cy="43.3" rx="1.8" ry="1.8"/>
		<ellipse transform="matrix(0.7071 -0.7071 0.7071 0.7071 8.0109 95.7034)" cx="119.5" cy="38.2" rx="1.8" ry="1.8"/>
		<ellipse transform="matrix(0.7071 -0.7071 0.7071 0.7071 7.5749 89.5474)" cx="111.9" cy="35.6" rx="1.8" ry="1.8"/>
		<path d="M137.3,137.7c3.6-3.4,6.3-7.8,7.8-12.7c0.3-1.1,0-2.2-0.8-3L96.9,74.5l37.9-37.8c0,0,0.1-0.1,0.1-0.1
			c0.2-0.2,0.4-0.5,0.5-0.8c0-0.1,0.1-0.1,0.1-0.2c10.7-29.2,10.6-29.3,8.8-31c-0.6-0.6-1.4-0.9-2.2-0.9c-0.6,0-2.2,0-28.8,9.8
			c-0.1,0-0.2,0.2-0.3,0.2c-0.2,0.1-0.5,0.2-0.6,0.4c0,0-0.1,0-0.1,0.1L74.4,52L36.5,14.1c0,0-0.1,0-0.1-0.1
			c-0.2-0.2-0.4-0.3-0.6-0.4c-0.1-0.1-0.2-0.2-0.3-0.2C8.8,3.7,7.2,3.7,6.6,3.7C5.8,3.7,5,4,4.4,4.6c-1.7,1.7-1.8,1.8,8.9,31
			c0,0.1,0.1,0.1,0.1,0.2c0.1,0.3,0.3,0.5,0.5,0.7c0,0,0.1,0.1,0.1,0.2l37.9,37.9L4.4,122c-0.8,0.8-1.1,1.9-0.8,3
			c1.4,5,4.1,9.4,7.6,12.6c3.4,3.6,7.8,6.3,12.7,7.8c0.3,0.1,0.6,0.1,0.8,0.1c0.8,0,1.6-0.3,2.1-0.9l47.5-47.4l47.4,47.4
			c0.6,0.6,1.3,0.9,2.1,0.9c0.3,0,0.6,0,0.8-0.1C129.7,143.8,134.1,141.2,137.3,137.7z M131.7,13.3c0,0.1,0.1,0.1,0.1,0.2
			c0.2,0.2,0.3,0.4,0.5,0.6c0.3,0.4,0.6,0.8,1.1,1.3c0.6,0.6,1.2,1,1.8,1.4c0.2,0.1,0.4,0.2,0.6,0.4c0,0,0,0,0,0
			c-1.5,4.3-3.3,9.2-4.9,13.6c-2.6-1.2-5.1-2.9-7.3-5.2l-0.4-0.4c-2.2-2.1-3.9-4.4-5-7.1C122.6,16.5,127.4,14.8,131.7,13.3z
			 M113.3,21.6c1.5,3,3.4,5.7,5.9,8c2.4,2.5,5.1,4.6,8.2,6.1L92.6,70.3l-14-14L113.3,21.6z M35.5,21.6l91.5,91.5
			c-0.5,1.4-1.2,2.7-2,4L33.2,25.3C34.1,24.1,34.8,22.9,35.5,21.6z M122.7,119.9c-0.4,0.5-0.8,0.9-1.3,1.4l-0.4,0.4
			c-0.5,0.6-1.1,1.1-1.7,1.6L27.5,31.6c0.6-0.6,1.3-1.2,1.9-1.8c0.5-0.5,1.1-1,1.6-1.6L122.7,119.9z M13.1,17.3
			c0.1,0,0.1-0.1,0.2-0.1c0.2-0.2,0.4-0.3,0.6-0.5c0.4-0.3,0.8-0.6,1.3-1.1c0.6-0.6,1-1.3,1.4-1.8c0.1-0.2,0.2-0.4,0.4-0.6
			c0,0,0,0,0,0c4.3,1.5,9.2,3.3,13.6,4.9c-1.2,2.7-2.9,5.1-5.2,7.3L25,25.7c-2.1,2.2-4.4,3.9-7.1,5C16.3,26.4,14.6,21.5,13.1,17.3z
			 M24,139c-4-1.5-6.8-3.8-8.5-5.7c-2.4-2.2-4.3-5.1-5.5-8.3l7.3-7.3c1.5,3,3.4,5.7,5.9,8c2.4,2.5,5.1,4.6,8.2,6.1L24,139z
			 M35.9,127.1c-3-1.2-5.8-3-8.3-5.6l-0.4-0.4c-2.4-2.3-4.2-5-5.4-8.1l34.3-34.3l14,14L35.9,127.1z M112.9,127.1L21.4,35.6
			c1.1-0.6,2.2-1.2,3.2-1.9l91.7,91.7C115.3,126.1,114.1,126.7,112.9,127.1z M125.4,125.8c2.5-2.4,4.6-5.1,6.1-8.2l7.3,7.3
			c-1.5,4-3.8,6.8-5.7,8.5c-2.2,2.4-5.1,4.3-8.3,5.5l-7.3-7.3C120.5,130.2,123.2,128.2,125.4,125.8z"/>
	</g>
</g>
</svg>
