<?xml version="1.0" encoding="utf-8"?>
<!-- Generator: Adobe Illustrator 21.0.0, SVG Export Plug-In . SVG Version: 6.00 Build 0)  -->
<svg version="1.1" id="Laag_1" xmlns="http://www.w3.org/2000/svg" xmlns:xlink="http://www.w3.org/1999/xlink" x="0px" y="0px"
	 viewBox="0 0 148 99.2" style="enable-background:new 0 0 148 99.2;" xml:space="preserve">
<style type="text/css">
	.st0{fill:#FFFFFF;}
</style>
<g>
	<rect x="5.7" y="36.4" class="st0" width="137.7" height="58.9"/>
	<g>
		<path d="M143.4,34.4H71c0.4-0.3,0.9-0.7,1.6-1.1c0.4-0.2,1.1-0.5,1.8-0.8c2.4-1,6.1-2.5,6.9-6.4c1.2-5.9-3.4-8.9-6.1-10.8
			c-0.5-0.3-0.9-0.6-1.3-0.9c-1.6-1.2-1.3-2.1-1.1-2.5c0.5-1.5,2.7-3.1,5-3c1.8,0.1,3.4-1.3,3.5-3.2c0.1-1.8-1.3-3.4-3.2-3.5
			c-5-0.3-10,2.9-11.6,7.4c-1.3,3.7-0.1,7.5,3.4,10.1c0.5,0.4,1,0.7,1.6,1.1c2.9,1.9,3.6,2.7,3.3,3.8c-0.1,0.5-2.1,1.3-3,1.6
			c-0.9,0.4-1.8,0.7-2.7,1.2c-2.2,1.3-4.9,3.3-5.7,6.9H5.7c-1.1,0-2,0.9-2,2v58.9c0,1.1,0.9,2,2,2h137.7c1.1,0,2-0.9,2-2V36.4
			C145.4,35.3,144.5,34.4,143.4,34.4z M141.4,93.3H7.7V38.4h133.7V93.3z"/>
		<path d="M66.4,41.3H53.1H39.7H26.4h0H11.9c-0.7,0-1.3,0.6-1.3,1.3V54v11.3v11.3v11.3c0,0.7,0.6,1.3,1.3,1.3H29h57.2h19.4h15h15.6
			c0.7,0,1.3-0.6,1.3-1.3V76.7c0-0.1,0-0.1,0-0.2c0-0.1,0-0.1,0-0.2V54.6c0-0.1,0-0.2-0.1-0.3c0-0.1,0.1-0.2,0.1-0.3V42.7
			c0-0.7-0.6-1.3-1.3-1.3h-29.7H93.1H79.8H66.4z M93.1,55.4h1.4V64h-6.2h-4.4v-8.7H93.1z M106.5,55.4h1.4V64h-6.2h-4.4v-8.7H106.5z
			 M121.3,55.4V64H115h-4.4v-8.7H121.3z M134.8,55.4v20h-5.1v-10c0-0.7-0.6-1.3-1.3-1.3h-4.4v-8.7H134.8z M120.6,75.4h-4.2v-8.7h6.2
			h4.4v8.7H120.6z M105.6,75.4H103v-8.7h6.2h4.4v8.7H105.6z M89.7,75.4v-8.7h6.2h4.4v8.7H89.7z M86.2,75.4h-9.9v-8.7h6.2H87v8.7
			H86.2z M63,75.4v-8.7h6.2h4.5v8.7H63z M49.6,75.4v-8.7h6.2h4.5v8.7H49.6z M36.3,75.4v-8.7h6.2H47v8.7H36.3z M29,75.4H13.2v-8.7
			h15.9h4.4v8.7H29z M26.4,55.4L26.4,55.4h1.4V64H13.2v-8.7H26.4z M39.7,55.4h1.4V64h-6.2h-4.4v-8.7H39.7z M53.1,55.4h1.4V64h-6.2
			h-4.5v-8.7H53.1z M66.4,55.4h1.4V64h-6.2h-4.5v-8.7H66.4z M81.2,64H75h-4.5v-8.7h9.2h1.4V64z M78.4,52.7h-9.2h-1.4V44h10.7V52.7z
			 M65.1,52.7h-9.2h-1.4V44h10.7V52.7z M51.7,52.7h-9.2h-1.4V44h10.7V52.7z M38.4,52.7h-9.2h-1.4V44h10.7V52.7z M13.2,44H25v8.7
			H13.2V44z M13.2,78.1h14.5v8.7H13.2V78.1z M30.4,78.1h4.6h13.4h13.3H75h9.9v8.7H30.4V78.1z M87.6,78.1h0.8h13.4h2.6v8.7H87.6V78.1
			z M106.9,78.1h8.1h4.2v8.7h-12.3V78.1z M134.8,86.7h-12.9v-8.7h6.5h6.5V86.7z M134.8,52.7h-12.2h-13.3h-1.4V44h27V52.7z
			 M105.1,52.7h-9.2h-1.4V44h10.7V52.7z M91.8,52.7h-9.2h-1.4V44h10.7V52.7z"/>
	</g>
</g>
</svg>
