<?xml version="1.0" encoding="utf-8"?>
<!-- Generator: Adobe Illustrator 21.0.0, SVG Export Plug-In . SVG Version: 6.00 Build 0)  -->
<svg version="1.1" id="Laag_1" xmlns="http://www.w3.org/2000/svg" xmlns:xlink="http://www.w3.org/1999/xlink" x="0px" y="0px"
	 viewBox="0 0 106.8 148.6" style="enable-background:new 0 0 106.8 148.6;" xml:space="preserve">
<style type="text/css">
	.st0{fill:#FFFFFF;}
</style>
<g>
	<path class="st0" d="M15,141.5c-4.8,0-8.7-3.9-8.7-8.7v-117C6.2,10.9,10.1,7,15,7h77.3c4.8,0,8.7,3.9,8.7,8.7v117
		c0,4.8-3.9,8.7-8.7,8.7H15z"/>
	<g>
		<path d="M92.3,3.4H15C8.1,3.4,2.6,8.9,2.6,15.7v117c0,6.8,5.5,12.4,12.4,12.4h77.3c6.8,0,12.4-5.5,12.4-12.4v-117
			C104.6,8.9,99.1,3.4,92.3,3.4z M97.4,132.7c0,2.8-2.3,5.1-5.1,5.1H15c-2.8,0-5.1-2.3-5.1-5.1v-117c0-2.8,2.3-5.1,5.1-5.1h77.3
			c2.8,0,5.1,2.3,5.1,5.1V132.7z"/>
		<path d="M86.8,20H20.4c-0.8,0-1.5,0.7-1.5,1.5v96.9c0,0.8,0.6,1.5,1.5,1.5h66.4c0.8,0,1.5-0.6,1.5-1.5V21.4
			C88.3,20.6,87.6,20,86.8,20z"/>
		<circle cx="53.6" cy="127.8" r="4.4"/>
	</g>
</g>
</svg>
