<?xml version="1.0" encoding="utf-8"?>
<!-- Generator: Adobe Illustrator 21.0.0, SVG Export Plug-In . SVG Version: 6.00 Build 0)  -->
<svg version="1.1" id="Laag_1" xmlns="http://www.w3.org/2000/svg" xmlns:xlink="http://www.w3.org/1999/xlink" x="0px" y="0px"
	 viewBox="0 0 146 80.6" style="enable-background:new 0 0 146 80.6;" xml:space="preserve">
<style type="text/css">
	.st0{fill:#FFFFFF;}
</style>
<g>
	<path class="st0" d="M129.2,63.5V17.7c0-5.7-4.6-10.3-10.3-10.3H16.3C10.6,7.5,6,12.1,6,17.7v45.8c0,5.7,4.6,10.3,10.3,10.3h102.7
		C124.6,73.8,129.2,69.2,129.2,63.5z"/>
	<g>
		<path d="M101.6,26.7l-32.4,7.5V28c0-0.5-0.3-1-0.7-1.2c-0.5-0.2-1-0.2-1.4,0.1L25.8,55.6c-0.5,0.4-0.7,1.1-0.5,1.7
			c0.2,0.5,0.7,0.8,1.3,0.8c0.1,0,0.2,0,0.3,0l32.4-7.5v6.2c0,0.5,0.3,1,0.7,1.2c0.5,0.2,1,0.2,1.4-0.1l41.3-28.7
			c0.5-0.4,0.7-1.1,0.5-1.7C102.9,26.8,102.2,26.5,101.6,26.7z"/>
		<path d="M141.6,18.4h-8.9v-0.7c0-7.5-6.1-13.7-13.7-13.7H16.3C8.7,4,2.6,10.2,2.6,17.7v45.8c0,7.5,6.1,13.7,13.7,13.7h102.7
			c7.5,0,13.7-6.1,13.7-13.7v-0.7h8.9c1.5,0,2.7-1.2,2.7-2.7v-39C144.3,19.6,143.1,18.4,141.6,18.4z M125.8,63.5
			c0,3.8-3.1,6.8-6.8,6.8H16.3c-3.8,0-6.8-3.1-6.8-6.8V17.7c0-3.8,3.1-6.8,6.8-6.8h102.7c3.8,0,6.8,3.1,6.8,6.8V63.5z"/>
		<circle cx="13.7" cy="65.6" r="2.1"/>
		<circle cx="21.9" cy="65.6" r="2.1"/>
		<circle cx="30.1" cy="65.6" r="2.1"/>
		<circle cx="38.3" cy="65.6" r="2.1"/>
		<circle cx="13.7" cy="49.2" r="2.1"/>
		<circle cx="21.9" cy="49.2" r="2.1"/>
		<circle cx="17.8" cy="57.4" r="2.1"/>
		<circle cx="13.7" cy="32.7" r="2.1"/>
		<circle cx="21.9" cy="32.7" r="2.1"/>
		<circle cx="30.1" cy="32.7" r="2.1"/>
		<circle cx="38.3" cy="32.7" r="2.1"/>
		<circle cx="17.8" cy="41" r="2.1"/>
		<circle cx="26" cy="41" r="2.1"/>
		<circle cx="34.2" cy="41" r="2.1"/>
		<circle cx="13.7" cy="16.3" r="2.1"/>
		<circle cx="21.9" cy="16.3" r="2.1"/>
		<circle cx="30.1" cy="16.3" r="2.1"/>
		<circle cx="38.3" cy="16.3" r="2.1"/>
		<circle cx="46.6" cy="65.6" r="2.1"/>
		<circle cx="46.6" cy="32.7" r="2.1"/>
		<circle cx="46.6" cy="16.3" r="2.1"/>
		<circle cx="17.8" cy="24.5" r="2.1"/>
		<circle cx="26" cy="24.5" r="2.1"/>
		<circle cx="34.2" cy="24.5" r="2.1"/>
		<circle cx="42.5" cy="24.5" r="2.1"/>
		<circle cx="54.8" cy="65.6" r="2.1"/>
		<circle cx="63" cy="65.6" r="2.1"/>
		<circle cx="50.7" cy="57.4" r="2.1"/>
		<circle cx="54.8" cy="16.3" r="2.1"/>
		<circle cx="63" cy="16.3" r="2.1"/>
		<circle cx="50.7" cy="24.5" r="2.1"/>
		<circle cx="58.9" cy="24.5" r="2.1"/>
	</g>
</g>
</svg>
