<?xml version="1.0" encoding="utf-8"?>
<!-- Generator: Adobe Illustrator 21.0.0, SVG Export Plug-In . SVG Version: 6.00 Build 0)  -->
<svg version="1.1" id="Laag_1" xmlns="http://www.w3.org/2000/svg" xmlns:xlink="http://www.w3.org/1999/xlink" x="0px" y="0px"
	 viewBox="0 0 111 148.6" style="enable-background:new 0 0 111 148.6;" xml:space="preserve">
<style type="text/css">
	.st0{fill:#FFFFFF;}
</style>
<g>
	<path class="st0" d="M93.7,23.2c-6.8,0-10.6,5.4-10.6,12.3v24.7c-0.7-5.8-4-10.4-10.1-10.3c-6.3,0-9.9,4.6-10.5,10.6l0-1.1
		c0-6.9-3.4-12.6-10.2-12.5c-6.5,0-10.1,4.9-10.5,11.2l0.1-34.5c0-9.9-3.4-15.5-10.2-15.5c-6.8,0-10.6,5.4-10.6,12.3l-0.4,37
		c0,0-12.4-1.4-12.4,12c0,4.4-0.1,25.5,0,32c0.3,22.3,22.6,40.9,22.6,40.9h53.6c0,0,19.4-12.6,19.4-32.9l0-70.7
		C103.9,28.9,100.6,23.2,93.7,23.2z"/>
	<g>
		<path d="M102.7,23c-2.3-2.3-5.3-3.5-9-3.5c-8.5,0-14.3,6.5-14.3,16.1v12.2c-1.9-1-4.1-1.5-6.3-1.5c-3.7,0-6.8,1.2-9.2,3.4
			c-0.2-0.4-0.5-0.8-0.8-1.1c-2.5-3.4-6.3-5.2-10.6-5.2c0,0,0,0,0,0c-2.5,0-4.8,0.6-6.8,1.6l0-21.2c0-7.2-1.7-12.5-4.9-15.7
			c-2.3-2.3-5.4-3.5-9-3.5c0,0,0,0,0,0c-8.5,0-14.3,6.5-14.3,16.1v33.4c-2.4,0.3-5.5,1.2-8.1,3.6c-3.1,2.8-4.7,6.9-4.7,12.1
			c0,1.2,0,3.8,0,6.9c0,8.1-0.1,20.4,0,25.1c0.4,23.7,23,42.9,23.9,43.7c0.7,0.6,1.5,0.9,2.4,0.9h53.6c0.7,0,1.4-0.2,2-0.6
			c0.9-0.6,21.1-13.9,21.1-36.1l0-70.7C107.7,31.6,106,26.3,102.7,23z M100.2,109.5c0,15.7-13.4,26.6-16.9,29.2h-51
			c-4.1-3.8-20-19.5-20.3-37.3c-0.1-4.6,0-16.9,0-25c0-3.2,0-5.7,0-7c0-3,0.7-5.1,2.2-6.5c0.9-0.9,2.1-1.3,3.2-1.6V81
			c0,2.1,1.7,3.7,3.7,3.7c2.1,0,3.7-1.7,3.7-3.7V20.5c0-2,0.6-8.6,6.9-8.6c0,0,0,0,0,0c1.6,0,2.8,0.4,3.7,1.3
			c1.8,1.8,2.7,5.5,2.7,10.4l-0.1,33.9c-0.1,0.6-0.1,1.2-0.1,1.8l0.1,9.8c0,2.1,1.7,3.7,3.7,3.7h0c2.1,0,3.7-1.7,3.7-3.7l0-11.2
			c0.3-2.7,1.6-7.2,6.8-7.2h0c2,0,3.5,0.7,4.6,2.2c1.2,1.6,1.8,3.9,1.8,6.6l0,0.5c-0.1,0.8-0.1,1.5-0.1,2.3l0.1,6.8
			c0,2,1.7,3.7,3.7,3.7h0c2.1,0,3.7-1.7,3.7-3.7l0.1-8.6c0.4-2.7,1.8-6.8,6.8-6.8c0,0,0,0,0,0c2,0,3.5,0.7,4.6,2.2
			c0.8,1.1,1.4,2.7,1.7,4.5v8.7c0,1.2,0.7,2.4,1.7,3.1c1.1,0.8,2.6,0.9,3.9,0.3c1.3-0.6,2-1.9,2-3.3v-6.7c0-0.9,0-1.7-0.1-2.6V35.6
			c0-2,0.6-8.6,6.9-8.6c1.6,0,2.8,0.4,3.7,1.3c1.8,1.8,2.7,5.5,2.7,10.4L100.2,109.5z"/>
		<circle cx="68.8" cy="90.6" r="2.2"/>
		<circle cx="46.4" cy="81.7" r="2.2"/>
		<circle cx="64.3" cy="81.7" r="2.2"/>
		<circle cx="86.7" cy="126.1" r="2.2"/>
		<circle cx="82.2" cy="117.2" r="2.2"/>
		<circle cx="91.2" cy="117.2" r="2.2"/>
		<circle cx="77.8" cy="108.2" r="2.2"/>
		<circle cx="86.7" cy="108.2" r="2.2"/>
		<circle cx="95.5" cy="108.2" r="2.2"/>
		<circle cx="91.2" cy="81.3" r="2.2"/>
		<circle cx="91.2" cy="63.4" r="2.2"/>
		<circle cx="95.7" cy="72.3" r="2.2"/>
		<circle cx="82.2" cy="99.2" r="2.2"/>
		<circle cx="91.2" cy="99.2" r="2.2"/>
		<circle cx="77.7" cy="90.3" r="2.2"/>
		<circle cx="59.8" cy="90.3" r="2.2"/>
		<circle cx="37.4" cy="81.3" r="2.2"/>
		<circle cx="55.3" cy="81.3" r="2.2"/>
		<circle cx="73.2" cy="81.3" r="2.2"/>
		<circle cx="73.2" cy="99.2" r="2.2"/>
		<circle cx="82.2" cy="81.3" r="2.2"/>
		<circle cx="86.7" cy="90.3" r="2.2"/>
		<circle cx="95.7" cy="90.3" r="2.2"/>
		<circle cx="91.2" cy="45.4" r="2.2"/>
		<circle cx="95.7" cy="54.4" r="2.2"/>
		<circle cx="95.7" cy="36.5" r="2.2"/>
	</g>
</g>
</svg>
