<?xml version="1.0" encoding="utf-8"?>
<!-- Generator: Adobe Illustrator 21.0.0, SVG Export Plug-In . SVG Version: 6.00 Build 0)  -->
<svg version="1.1" id="Laag_1" xmlns="http://www.w3.org/2000/svg" xmlns:xlink="http://www.w3.org/1999/xlink" x="0px" y="0px"
	 viewBox="0 0 136 148.6" style="enable-background:new 0 0 136 148.6;" xml:space="preserve">
<style type="text/css">
	.st0{fill:#FFFFFF;}
</style>
<g>
	<path class="st0" d="M116,79.2l14.6-10.9L116,57.4l8.4-16.1l-17.9-3.5l0.6-18.2l-17.6,4.6L82.2,7.6L68.3,19.4L54.5,7.6l-7.4,16.6
		l-17.6-4.6l0.6,18.2l-17.9,3.5l8.4,16.1L6.1,68.3l14.6,10.9l-8.4,16.1l17.9,3.5L29.5,117l22.3-5.8C52.6,118.7,52,131,52,131
		s15.1,11.7,16.4,12.6c1.3-0.9,16.4-12.6,16.4-12.6s-0.6-12.2,0.2-19.7l22.1,5.7l-0.6-18.2l17.9-3.5L116,79.2z"/>
	<g>
		<circle cx="43.5" cy="76.8" r="1.7"/>
		<circle cx="50.5" cy="90.7" r="1.7"/>
		<circle cx="47" cy="83.8" r="1.7"/>
		<circle cx="53.9" cy="97.7" r="1.7"/>
		<circle cx="47" cy="69.9" r="1.7"/>
		<circle cx="40" cy="69.9" r="1.7"/>
		<circle cx="43.5" cy="62.9" r="1.7"/>
		<circle cx="40" cy="56" r="1.7"/>
		<circle cx="47" cy="56" r="1.7"/>
		<circle cx="43.5" cy="49" r="1.7"/>
		<circle cx="50.5" cy="49" r="1.7"/>
		<circle cx="53.9" cy="42.1" r="1.7"/>
		<circle cx="64.4" cy="35.1" r="1.7"/>
		<circle cx="60.9" cy="42.1" r="1.7"/>
		<path d="M132.3,66l-12.6-9.4l7.3-13.9c0.4-0.8,0.4-1.8,0-2.6c-0.4-0.8-1.2-1.4-2.1-1.6l-15.4-3l0.5-15.7c0-0.9-0.4-1.8-1.1-2.4
			c-0.7-0.6-1.7-0.8-2.5-0.5l-15.2,4L84.8,6.4c-0.4-0.8-1.1-1.4-2-1.7c-0.9-0.2-1.8,0-2.5,0.6l-12,10.2l-12-10.2
			c-0.7-0.6-1.6-0.8-2.5-0.6c-0.9,0.2-1.6,0.8-2,1.7l-6.4,14.4l-15.2-4c-0.9-0.2-1.8,0-2.5,0.5c-0.7,0.6-1.1,1.4-1.1,2.4l0.5,15.7
			l-15.4,3c-0.9,0.2-1.7,0.8-2.1,1.6c-0.4,0.8-0.4,1.8,0,2.6l7.3,13.9L4.3,66c-0.7,0.5-1.2,1.4-1.2,2.3c0,0.9,0.4,1.8,1.2,2.3
			l12.6,9.4L9.7,94c-0.4,0.8-0.4,1.8,0,2.6c0.4,0.8,1.2,1.4,2.1,1.6l15.4,3l-0.5,15.7c0,0.9,0.4,1.8,1.1,2.4
			c0.7,0.6,1.7,0.8,2.5,0.5l18.9-4.9c0.3,5.6,0.1,12.7-0.1,15.9c0,0.9,0.4,1.9,1.1,2.4c2.5,2,15.3,11.8,16.6,12.7
			c0.5,0.3,1,0.5,1.6,0.5c0.6,0,1.1-0.2,1.6-0.5c1.3-0.9,14.1-10.7,16.6-12.7c0.7-0.6,1.2-1.5,1.1-2.4c-0.2-3.2-0.3-10.2-0.1-15.9
			l18.8,4.9c0.2,0.1,0.5,0.1,0.7,0.1c0,0,0,0,0,0c1.6,0,2.9-1.3,2.9-2.9c0-0.2,0-0.4-0.1-0.6l-0.5-15.2l15.4-3
			c0.9-0.2,1.7-0.8,2.1-1.6c0.4-0.8,0.4-1.8,0-2.6l-7.3-13.9l12.6-9.4c0.7-0.5,1.2-1.4,1.2-2.3C133.5,67.4,133.1,66.6,132.3,66z
			 M68.4,140c-1.4-1.1-3.7-2.8-6.1-4.6h12.1C72.1,137.2,69.8,138.9,68.4,140z M54.9,129.5c0-0.8,0.1-1.9,0.1-3.1h26.7
			c0,1.2,0.1,2.3,0.1,3.1H54.9z M68.5,77.5c1.5,1,3.2,1.9,5.3,2.6c0.9,0.3,1.7,0.6,2.5,0.8c-0.4,2.1-0.6,4.3-0.9,6.4
			c-0.1,1-0.2,2-0.4,2.9c-0.8,5.5-2.4,16.4-3.1,21.4h-6.8c-0.7-5-2.3-15.9-3.1-21.4c-0.1-0.9-0.2-1.9-0.4-2.8
			c-0.3-2.1-0.5-4.3-0.9-6.4c0.8-0.2,1.6-0.5,2.5-0.8C65.3,79.3,67,78.5,68.5,77.5z M65.3,66.1c0.3-1.7,1.5-2.6,3.2-2.6
			c1.8,0,2.9,1,3.3,2.6c0.4,2-0.6,4.7-3.2,7C65.9,70.7,64.9,68.1,65.3,66.1z M81.8,117.4c0,1.1,0,2.1,0,3.2H55.1c0-1,0-2.1,0-3.2
			H81.8z M82.9,106.5c-0.4,1.3-0.7,3.1-0.9,5.1h-6.7c0.8-5.2,2.3-15.6,3-21c0.1-0.9,0.3-1.9,0.4-2.9c0.2-1.7,0.5-4,0.9-6.2
			c3.7,0.2,5.7-1,6.7-2.1c1.6-1.7,2-4.1,1.1-6.3c-0.8-1.9-2.5-3-4.4-3c-3.3,0-5.1,3.1-6.2,7.3c-0.6-0.2-1.3-0.4-2-0.7
			c-1.4-0.5-2.5-1.1-3.6-1.7c3.2-3.2,4.3-6.8,3.8-9.7c-0.6-3.3-3.2-5.5-6.7-5.5c-3.4,0-6.1,2.2-6.7,5.5c-0.5,3,0.6,6.6,3.8,9.7
			c-1.1,0.6-2.2,1.2-3.6,1.7c-0.7,0.3-1.4,0.5-2,0.7c-1.1-4.2-2.9-7.3-6.2-7.3c-1.9,0-3.6,1.2-4.4,3c-0.9,2.1-0.5,4.6,1.1,6.3
			c1,1,3,2.4,6.7,2.1c0.4,2.2,0.7,4.5,0.9,6.3c0.1,1,0.2,2,0.4,2.9c0.7,5.3,2.3,15.7,3,21h-6.9c-0.2-2-0.5-3.8-0.9-5.1
			c-1.2-3.9-5.3-9.8-9.6-16c-2.7-3.9-5.3-7.6-6.7-10.2c-2.2-4.1-3.3-9-3.3-14.8c0-18.8,15.4-34.2,34.2-34.2s34.2,15.3,34.2,34.2
			c0,5.7-1.1,10.7-3.3,14.8c-1.5,2.7-4,6.4-6.7,10.2C88.2,96.8,84.1,102.6,82.9,106.5z M80.5,78.1c0.7-2.5,1.5-4.4,2.7-4.4
			c0.7,0,1.1,0.6,1.2,0.9c0.3,0.7,0.3,1.7-0.4,2.5C83.2,77.8,82,78.1,80.5,78.1z M56.6,78.1c-1.5,0.1-2.8-0.3-3.5-1
			c-0.7-0.8-0.7-1.8-0.4-2.5c0.1-0.3,0.5-0.9,1.2-0.9C55,73.7,55.9,75.5,56.6,78.1z M114.3,76.9c-1.1,0.9-1.5,2.4-0.8,3.7l6.6,12.7
			L106,96c-1.4,0.3-2.4,1.5-2.3,2.9l0.5,14.3l-15.9-4.1c0.1-0.3,0.1-0.6,0.2-0.9c0.9-3,5.1-9,8.8-14.3c2.8-4,5.5-7.8,7.1-10.8
			c2.7-4.9,4.1-10.8,4.1-17.6c0-22-18-40-40-40s-40,17.9-40,40c0,6.7,1.4,12.6,4.1,17.6c1.6,3,4.3,6.8,7.1,10.8
			c3.7,5.3,7.9,11.3,8.8,14.3c0.1,0.3,0.1,0.6,0.2,0.9c0,0,0,0,0,0l-16,4.2L33,98.9c0-1.4-0.9-2.7-2.3-2.9l-14-2.7l6.6-12.7
			c0.7-1.3,0.3-2.8-0.8-3.7l-11.5-8.6l11.5-8.6c1.1-0.9,1.5-2.4,0.8-3.7l-6.6-12.7l14-2.7c1.4-0.3,2.4-1.5,2.3-2.9l-0.5-14.3
			L46.4,27c1.4,0.4,2.8-0.3,3.4-1.6l5.8-13.1l10.9,9.3c1.1,0.9,2.7,0.9,3.8,0l10.9-9.3l5.8,13.1c0.6,1.3,2,2,3.4,1.6l13.9-3.6
			l-0.5,14.3c0,1.4,0.9,2.7,2.3,2.9l14,2.7l-6.6,12.7c-0.7,1.3-0.3,2.8,0.8,3.7l11.5,8.6L114.3,76.9z"/>
	</g>
</g>
</svg>
