<?xml version="1.0" encoding="utf-8"?>
<!-- Generator: Adobe Illustrator 21.0.0, SVG Export Plug-In . SVG Version: 6.00 Build 0)  -->
<svg version="1.1" id="Laag_1" xmlns="http://www.w3.org/2000/svg" xmlns:xlink="http://www.w3.org/1999/xlink" x="0px" y="0px"
	 viewBox="0 0 105.7 146.3" style="enable-background:new 0 0 105.7 146.3;" xml:space="preserve">
<style type="text/css">
	.st0{fill:#FFFFFF;}
</style>
<g>
	<path class="st0" d="M22.9,66.3c4.1-7.2-9.4-18.2-9.4-18.2S1.6,39.3,7,31.7c6.1-8.4,14.9-3.6,19.5,2.2c4.5,5.8,13.5,11,16.1,0.4
		c2.6-10.6-6.9-30.1,12.9-28.2c19.8,1.9,10,19.8,6.6,25.4s6.8,9.8,15.7,5.9c9-3.9,12.2,2.1,9.9,7.9c-1.4,3.6-0.7,9.8,6.2,8.9
		c6.4-0.8,9.7,7.9,2.3,11.1c-2.4,1.1-9.1,1.6-14.6,1C59.6,86.7,31.3,78,22.9,66.3z"/>
	<g>
		<path d="M85.2,77.5v-7.4c0.5,0,1,0.1,1.5,0.1c1.7,0,7.7-0.1,10.9-1.5c4.7-2,7.1-6.2,6.1-10.7c-1-4.7-5.2-7.8-10.3-7.2
			c-0.3,0-0.6,0.1-0.8,0.1c-1.2,0-1.5-0.4-1.6-0.5c-0.5-0.7-0.5-2.4-0.1-3.6c1.5-3.7,1.3-7.6-0.6-10.3c-2.6-3.9-7.9-4.8-14-2.2
			c-1.9,0.8-3.9,1.2-5.9,1.2c-3.4,0-5.3-1.2-5.5-1.7c0,0,0-0.2,0.2-0.4c5.8-9.8,7.4-17.6,4.5-23.2c-2.2-4.4-6.9-7-13.8-7.6
			c-1-0.1-2-0.1-2.8-0.1c-4.6,0-8.2,1.3-10.5,3.8c-4.1,4.4-3.6,11.1-3.2,17.5c0.2,3.5,0.5,7.1-0.1,9.7c-0.5,2.2-1.3,3.4-2.4,3.4
			c-1.9,0-5.2-2.2-7.5-5.2c-4-5.1-9.3-8.1-14.4-8.1c-2.9,0-7.2,1-10.8,6c-5.9,8.3,1.8,17.3,7.2,21.3c3.9,3.2,10.4,10.4,8.6,13.7l0,0
			c-0.2,0.3-0.3,0.6-0.4,0.9c0,0.1,0,0.2,0,0.4c0,0.2-0.1,0.3-0.1,0.5v67c0,1.3,0.7,2.5,1.8,3.1c9.3,5.1,19.4,7.8,29.3,7.8
			c0.6,0,1.3,0,1.7,0c0.6,0,1.3,0,1.9,0c9.9,0,20.1-2.7,29.3-7.8c1.1-0.6,1.8-1.8,1.8-3.1v-12.5c9.7-0.7,17.5-10.1,17.5-21.7
			C102.7,87.6,95,78.2,85.2,77.5z M82.1,62.8c-0.2,0-0.5,0-0.7,0c0,0-0.1,0-0.1,0c-0.2,0-0.4,0.1-0.6,0.1c-0.1,0-0.2,0.1-0.2,0.1
			c-0.1,0.1-0.3,0.1-0.4,0.2c-7.6,4.2-16.5,6.4-25.5,6.4c-0.7,0-1.4,0-2.3,0c-0.7,0-1.4,0-2.1,0c-8,0-15.9-1.8-22.9-5.1
			c1-8.7-10-18-11.5-19.2c-0.1-0.1-9-6.9-5.7-11.5c1.5-2,3.2-3,5.1-3c2.8,0,6.2,2.1,8.8,5.4c3,3.8,8,7.9,13.1,7.9
			c2.1,0,7.3-0.9,9.3-8.8c0.9-3.6,0.6-7.8,0.3-11.9c-0.3-4.9-0.7-10,1.3-12.2c1.2-1.3,3.8-1.8,7.5-1.5c4.4,0.4,7.1,1.7,8.2,3.8
			c0.9,1.8,1.6,6.4-4.3,16.3c-1.5,2.5-1.5,5.2-0.2,7.5c1.9,3.3,6.3,5.3,11.7,5.3c3,0,6-0.6,8.8-1.8c1.8-0.8,3-0.9,3.7-0.9
			c1.2,0,1.5,0.4,1.6,0.6c0.4,0.6,0.6,2-0.1,3.7c-1,2.7-1.4,6.9,0.8,10.2c1.6,2.3,4.3,3.6,7.4,3.6c0.5,0,1.1,0,1.7-0.1
			c1.4-0.2,2.3,0.7,2.5,1.6c0.3,1.4-1.1,2.3-2,2.7c-0.8,0.4-3.7,0.9-8,0.9C85.1,63.1,83.5,63,82.1,62.8z M85.2,113.6V84.7
			c5.8,0.8,10.4,6.9,10.4,14.5S91.1,112.9,85.2,113.6z"/>
		<circle cx="27.4" cy="53.3" r="2.1"/>
		<circle cx="23.1" cy="44.7" r="2.1"/>
		<circle cx="18.8" cy="36.2" r="2.1"/>
		<circle cx="35.9" cy="53.3" r="2.1"/>
		<circle cx="40.2" cy="61.8" r="2.1"/>
		<circle cx="31.7" cy="61.8" r="2.1"/>
		<circle cx="48.7" cy="61.8" r="2.1"/>
		<circle cx="57.3" cy="61.8" r="2.1"/>
		<circle cx="65.8" cy="61.8" r="2.1"/>
		<circle cx="70.1" cy="53.3" r="2.1"/>
		<circle cx="74.4" cy="61.8" r="2.1"/>
		<circle cx="78.6" cy="53.3" r="2.1"/>
	</g>
</g>
</svg>
