<?xml version="1.0" encoding="utf-8"?>
<!-- Generator: Adobe Illustrator 21.0.0, SVG Export Plug-In . SVG Version: 6.00 Build 0)  -->
<svg version="1.1" id="Laag_1" xmlns="http://www.w3.org/2000/svg" xmlns:xlink="http://www.w3.org/1999/xlink" x="0px" y="0px"
	 viewBox="0 0 93.7 148.6" style="enable-background:new 0 0 93.7 148.6;" xml:space="preserve">
<style type="text/css">
	.st0{fill:#FFFFFF;}
</style>
<g>
	<polygon class="st0" points="76.1,46.3 76.1,33.2 66.4,33.2 66.4,20.2 56.8,20.2 56.8,7.1 37.5,7.1 37.5,20.2 27.8,20.2 27.8,33.2 
		18.2,33.2 18.2,46.3 6,46.3 6,57.6 6,59.4 6,142.6 32.7,142.6 61.6,142.6 88.2,142.6 88.2,59.4 88.2,57.6 88.2,46.3 	"/>
	<g>
		<path d="M88.2,43.2h-9v-9.9c0-1.7-1.4-3.1-3.1-3.1h-6.5v-9.9c0-1.7-1.4-3.1-3.1-3.1h-6.5V7.1c0-1.7-1.4-3.1-3.1-3.1H37.5
			c-1.7,0-3.1,1.4-3.1,3.1v9.9h-6.5c-1.7,0-3.1,1.4-3.1,3.1v9.9h-6.5c-1.7,0-3.1,1.4-3.1,3.1v9.9H6c-1.7,0-3.1,1.4-3.1,3.1v96.3
			c0,1.7,1.4,3.1,3.1,3.1h26.7h28.9h26.7c1.7,0,3.1-1.4,3.1-3.1V46.3C91.3,44.6,90,43.2,88.2,43.2z M44,139.5h-8.2v-7.3H44V139.5z
			 M58.5,139.5h-8.2v-7.3h8.2V139.5z M85.1,139.5H64.7v-10.4c0-1.7-1.4-3.1-3.1-3.1H32.7c-1.7,0-3.1,1.4-3.1,3.1v10.4H9.2v-77h76
			V139.5z M85.1,56.3h-76v-6.8h9c1.7,0,3.1-1.4,3.1-3.1v-9.9h6.5c1.7,0,3.1-1.4,3.1-3.1v-9.9h6.5c1.7,0,3.1-1.4,3.1-3.1v-9.9h13.1
			v9.9c0,1.7,1.4,3.1,3.1,3.1h6.5v9.9c0,1.7,1.4,3.1,3.1,3.1H73v9.9c0,1.7,1.4,3.1,3.1,3.1h9V56.3z"/>
		<path d="M61.6,78.5H32.7c-1.7,0-3.1,1.4-3.1,3.1v35.9c0,1.7,1.4,3.1,3.1,3.1h28.9c1.7,0,3.1-1.4,3.1-3.1V81.6
			C64.7,79.9,63.3,78.5,61.6,78.5z M44,114.4h-8.2V84.7H44V114.4z M58.5,114.4h-8.2V84.7h8.2V114.4z"/>
		<path d="M50.9,32.5h-6c-1,0-1.9,0.8-1.9,1.9v10.2c0,1,0.8,1.9,1.9,1.9h6c1,0,1.9-0.8,1.9-1.9V34.4C52.7,33.3,51.9,32.5,50.9,32.5z
			"/>
		<circle cx="13.4" cy="127.6" r="1.9"/>
		<circle cx="13.4" cy="97.7" r="1.9"/>
		<circle cx="13.4" cy="112.7" r="1.9"/>
		<circle cx="13.4" cy="82.8" r="1.9"/>
		<circle cx="17.1" cy="135.1" r="1.9"/>
		<circle cx="17.1" cy="105.2" r="1.9"/>
		<circle cx="17.1" cy="90.3" r="1.9"/>
		<circle cx="17.1" cy="120.1" r="1.9"/>
		<circle cx="17.1" cy="75.3" r="1.9"/>
		<circle cx="13.4" cy="67.8" r="1.9"/>
		<circle cx="24.6" cy="135.1" r="1.9"/>
		<circle cx="71.7" cy="135.1" r="1.9"/>
		<circle cx="20.8" cy="127.6" r="1.9"/>
		<circle cx="24.6" cy="105.2" r="1.9"/>
		<circle cx="24.6" cy="90.3" r="1.9"/>
		<circle cx="20.8" cy="97.7" r="1.9"/>
		<circle cx="24.6" cy="120.1" r="1.9"/>
		<circle cx="20.8" cy="112.7" r="1.9"/>
		<circle cx="24.6" cy="75.3" r="1.9"/>
		<circle cx="32" cy="75.3" r="1.9"/>
		<circle cx="39.5" cy="75.3" r="1.9"/>
		<circle cx="47" cy="75.3" r="1.9"/>
		<circle cx="54.4" cy="75.3" r="1.9"/>
		<circle cx="61.9" cy="75.3" r="1.9"/>
		<circle cx="20.8" cy="82.8" r="1.9"/>
		<circle cx="79.2" cy="135.1" r="1.9"/>
		<circle cx="69.2" cy="105.2" r="1.9"/>
		<circle cx="69.2" cy="90.3" r="1.9"/>
		<circle cx="69.2" cy="120.1" r="1.9"/>
		<circle cx="20.8" cy="67.8" r="1.9"/>
		<circle cx="28.3" cy="67.8" r="1.9"/>
		<circle cx="35.8" cy="67.8" r="1.9"/>
		<circle cx="43.2" cy="67.8" r="1.9"/>
		<circle cx="50.7" cy="67.8" r="1.9"/>
		<circle cx="58.2" cy="67.8" r="1.9"/>
		<circle cx="69.4" cy="75.3" r="1.9"/>
		<circle cx="65.6" cy="67.8" r="1.9"/>
		<circle cx="73" cy="127.6" r="1.9"/>
		<circle cx="80.4" cy="127.6" r="1.9"/>
		<circle cx="76.7" cy="105.2" r="1.9"/>
		<circle cx="76.7" cy="90.3" r="1.9"/>
		<circle cx="73" cy="97.7" r="1.9"/>
		<circle cx="80.4" cy="97.7" r="1.9"/>
		<circle cx="76.7" cy="120.1" r="1.9"/>
		<circle cx="73" cy="112.7" r="1.9"/>
		<circle cx="80.4" cy="112.7" r="1.9"/>
		<circle cx="76.7" cy="75.3" r="1.9"/>
		<circle cx="73" cy="82.8" r="1.9"/>
		<circle cx="80.4" cy="82.8" r="1.9"/>
		<circle cx="73" cy="67.8" r="1.9"/>
		<circle cx="80.4" cy="67.8" r="1.9"/>
	</g>
</g>
</svg>
