<?xml version="1.0" encoding="utf-8"?>
<!-- Generator: Adobe Illustrator 21.0.0, SVG Export Plug-In . SVG Version: 6.00 Build 0)  -->
<svg version="1.1" id="Laag_1" xmlns="http://www.w3.org/2000/svg" xmlns:xlink="http://www.w3.org/1999/xlink" x="0px" y="0px"
	 viewBox="0 0 109.7 146.3" style="enable-background:new 0 0 109.7 146.3;" xml:space="preserve">
<style type="text/css">
	.st0{fill:#FFFFFF;}
</style>
<g>
	<path class="st0" d="M8.2,76.2c6-2.7,16.6-12.1,36.1-10.1c-1,11.6-1.2,22.8,0.6,25.2c19.9,25.7,55.6,3.2,55.6,3.2l-0.5-61
		c-13.7,9.5-28.4,9.2-39.5,7.1c0-9.5,0-17.5-0.2-19.1C60.1,17.1,59.8,5,39.1,6.9C24.8,8.1,17.5,11.3,8.2,17.1"/>
	<g>
		<path d="M104.1,33.5c0-1.5-0.8-2.8-2.1-3.5c-1.3-0.7-2.9-0.6-4.1,0.3c-9.5,6.6-20.4,8.9-33.3,7c0-5.8,0-14.2-0.2-16.1l0-0.4
			c-0.2-2.9-0.8-9.1-6-13.4C54,3.6,47.4,2.2,38.8,2.9c-15,1.3-23.1,4.8-32.7,10.8C6,13.8,5.9,13.9,5.8,14c-0.2,0.2-0.5,0.4-0.7,0.6
			C5,14.8,4.9,15,4.8,15.1c-0.2,0.3-0.3,0.5-0.4,0.8c-0.1,0.2-0.1,0.4-0.1,0.6c0,0.2-0.1,0.3-0.1,0.5L4.3,76c0,0.2,0,0.3,0,0.5
			l0.1,64c0,2.2,1.8,3.9,3.9,3.9h0c2.2,0,3.9-1.8,3.9-3.9l-0.1-61.9c0.7-0.4,1.4-0.8,2.1-1.2c5.5-3.2,13.7-7.8,25.8-7.6
			c-1.4,19.9,0.6,22.5,1.7,23.9c7.9,10.3,18.4,13.8,28.8,13.8c12.5,0,24.7-5.1,32-9.7c1.2-0.7,1.8-2,1.8-3.4L104.1,33.5z M47.5,83.3
			c-0.1-2.8,0-6.8,0.4-12.7c2.7,0.5,5.5,1.2,8.3,2.1c-0.1,3-0.2,5.2-0.3,6.2C54.9,80,51.5,81.7,47.5,83.3z M12.2,69.5l-0.1-50.2
			c8.1-4.8,14.7-7.4,27.4-8.6c6.4-0.6,11.2,0.3,13.8,2.5c2.7,2.3,3,5.8,3.2,8.1l0,0.5c0.1,1.1,0.2,7.3,0.2,18.7c0,0,0,0,0,0
			c0,8.8-0.1,17.3-0.3,24c-4.1-1.2-8-2-11.8-2.4c-0.1,0-0.1,0-0.2,0C29.1,60.7,18.8,65.8,12.2,69.5z M49.7,91
			c8.3-3.3,13-6.5,13.8-9.8c0.7-3,1-25.3,1-36c11.7,1.5,22.3-0.1,31.7-4.8l0.4,51.8C89.7,96,64.9,107.6,49.7,91z"/>
		<circle cx="67.2" cy="80.8" r="2.4"/>
		<circle cx="76.6" cy="80.8" r="2.4"/>
		<circle cx="67.2" cy="61.9" r="2.4"/>
		<circle cx="76.6" cy="61.9" r="2.4"/>
		<circle cx="71.9" cy="71.3" r="2.4"/>
		<circle cx="81.3" cy="71.3" r="2.4"/>
		<circle cx="62.4" cy="90.2" r="2.4"/>
		<circle cx="71.9" cy="90.2" r="2.4"/>
		<circle cx="81.3" cy="90.2" r="2.4"/>
		<circle cx="71.9" cy="52.4" r="2.4"/>
		<circle cx="81.3" cy="52.4" r="2.4"/>
		<circle cx="86.1" cy="80.8" r="2.4"/>
		<circle cx="86.1" cy="61.9" r="2.4"/>
		<circle cx="90.8" cy="71.3" r="2.4"/>
		<circle cx="90.8" cy="90.2" r="2.4"/>
		<circle cx="90.8" cy="52.4" r="2.4"/>
	</g>
</g>
</svg>
