<?xml version="1.0" encoding="utf-8"?>
<!-- Generator: Adobe Illustrator 21.0.0, SVG Export Plug-In . SVG Version: 6.00 Build 0)  -->
<svg version="1.1" id="Laag_1" xmlns="http://www.w3.org/2000/svg" xmlns:xlink="http://www.w3.org/1999/xlink" x="0px" y="0px"
	 viewBox="0 0 149 104" style="enable-background:new 0 0 149 104;" xml:space="preserve">
<style type="text/css">
	.st0{fill:#FFFFFF;}
</style>
<g>
	<polygon class="st0" points="143.4,44.8 75,5.1 6.6,44.8 6.6,44.8 6.6,55.5 75,100 143.4,55.5 143.4,44.8 	"/>
	<g>
		<path d="M145.8,44.7L145.8,44.7c0-0.3-0.1-0.5-0.2-0.8c0-0.1-0.1-0.2-0.1-0.3c-0.1-0.2-0.2-0.4-0.4-0.5c-0.1-0.1-0.1-0.1-0.2-0.2
			c-0.1-0.1-0.3-0.2-0.4-0.3L76.2,2.9c-0.8-0.4-1.7-0.4-2.5,0L5.4,42.6c-0.5,0.3-0.8,0.7-1,1.1c0,0,0,0.1,0,0.1
			c-0.1,0.3-0.2,0.6-0.2,0.9c0,0,0,0.1,0,0.1l0,10.7c0,0.8,0.4,1.6,1.1,2.1l68.4,44.5c0.4,0.3,0.9,0.4,1.4,0.4
			c0.5,0,0.9-0.1,1.4-0.4l68.4-44.5c0.7-0.5,1.1-1.2,1.1-2.1L145.8,44.7C145.9,44.8,145.8,44.8,145.8,44.7z M72.5,95.5L9.1,54.2
			l0-4.8l63.4,41.3V95.5z M75,86.3L11.4,44.9L75,8l63.6,37L75,86.3z M140.9,54.2L77.5,95.5v-4.8l63.4-41.3L140.9,54.2z"/>
		<path d="M95.4,29c-5.7-4.4-13.3-6.8-21.3-6.8c-2.6,0-5.2,0.3-7.7,0.8c-0.4,0.1-0.8,0.3-1,0.7c-0.2,0.4-0.3,0.8-0.1,1.2L71,41.7
			L54.5,29c-0.5-0.4-1.3-0.4-1.8,0c-5.8,4.5-9,10.5-9,17c0,6.4,3.2,12.5,9,17c5.7,4.4,13.3,6.8,21.3,6.8c8,0,15.6-2.4,21.3-6.8
			c5.8-4.5,9-10.5,9-17C104.4,39.5,101.2,33.5,95.4,29z M91.5,58.7c-9.7,7.5-25.4,7.5-35,0c-4.5-3.4-6.9-8-6.9-12.7
			c0-4.5,2.2-8.8,6.2-12.1l17.3,13.3c0.5,0.4,1.2,0.4,1.8,0c0.5-0.4,0.8-1.1,0.5-1.7l-6-17.4c8-1.2,16.3,0.7,22.1,5.2
			c4.5,3.4,6.9,8,6.9,12.7C98.5,50.7,96,55.2,91.5,58.7z"/>
		<path d="M65.2,52l-1.5-1.5c-0.3-0.3-0.8-0.4-1.2-0.2l-2,1.2l-1-1c-0.3-0.3-0.8-0.4-1.2-0.1c-0.7,0.5-1.2,1.2-1.3,2.1
			c-0.1,1,0.3,2.2,1.2,3.1c1,1,2.4,1.6,3.8,1.6c0.7,0,1.3-0.2,1.8-0.4c0.3-0.2,0.5-0.4,0.5-0.7c0-0.3-0.1-0.6-0.3-0.8l-0.6-0.6
			l1.5-0.9c0.3-0.2,0.4-0.4,0.5-0.7C65.5,52.5,65.4,52.2,65.2,52z"/>
		<path d="M85.2,54.8l-2.1-0.4l0.3-0.8c0.1-0.3,0.1-0.6-0.1-0.8c-0.1-0.2-0.4-0.4-0.7-0.5c-2-0.3-4,1-4.7,2.9c-0.3,1-0.3,2.1,0.3,3
			c0.5,0.8,1.3,1.4,2.2,1.6c0.1,0,0.1,0,0.2,0c0.4,0,0.8-0.3,0.9-0.7l0.3-1l2.4,0.5c0.5,0.1,1-0.2,1.1-0.7l0.6-1.9
			c0.1-0.3,0.1-0.6-0.1-0.8C85.7,55.1,85.5,54.9,85.2,54.8z"/>
		<path d="M79.5,40.6l1.3,0.3l-0.5,1.4c-0.1,0.3-0.1,0.6,0.1,0.8c0.1,0.3,0.4,0.4,0.7,0.5l2.4,0.5c0.1,0,0.1,0,0.2,0
			c0.4,0,0.8-0.3,0.9-0.7l0.6-1.6l1.6,0.3c0.5,0.1,1-0.2,1.2-0.7c0.2-0.6,0.1-1.3-0.3-2c-0.6-1-1.8-1.8-3.4-2.1
			c-0.5-0.1-1-0.2-1.5-0.2c-1.9,0-3.4,0.8-4,2c-0.1,0.3-0.1,0.6,0,0.8C78.9,40.4,79.2,40.6,79.5,40.6z"/>
		<circle cx="55" cy="45.2" r="1.5"/>
		<circle cx="60.9" cy="45.2" r="1.5"/>
		<circle cx="66.9" cy="57.1" r="1.5"/>
		<circle cx="72.9" cy="57.1" r="1.5"/>
		<circle cx="69.9" cy="51.2" r="1.5"/>
		<circle cx="90.8" cy="45.2" r="1.5"/>
		<circle cx="87.8" cy="51.2" r="1.5"/>
		<circle cx="81.8" cy="33.3" r="1.5"/>
		<circle cx="75.9" cy="33.3" r="1.5"/>
		<circle cx="58" cy="39.2" r="1.5"/>
	</g>
</g>
</svg>
