<?xml version="1.0" encoding="utf-8"?>
<!-- Generator: Adobe Illustrator 21.0.0, SVG Export Plug-In . SVG Version: 6.00 Build 0)  -->
<svg version="1.1" id="Laag_1" xmlns="http://www.w3.org/2000/svg" xmlns:xlink="http://www.w3.org/1999/xlink" x="0px" y="0px"
	 viewBox="0 0 126.7 145.9" style="enable-background:new 0 0 126.7 145.9;" xml:space="preserve">
<style type="text/css">
	.st0{fill:#FFFFFF;}
</style>
<g>
	<polygon class="st0" points="110.3,4.9 17.3,4.9 5.4,23.5 5.4,140.7 122.3,140.7 122.3,23.5 	"/>
	<g>
		<path d="M125.2,23.5c0-0.3-0.1-0.7-0.2-1c0-0.1-0.1-0.2-0.1-0.3c0-0.1-0.1-0.2-0.1-0.3L112.9,3.3
			c-0.5-0.9-1.5-1.4-2.5-1.4h-93c-1,0-2,0.5-2.5,1.4L2.9,21.9c-0.1,0.1-0.1,0.2-0.1,0.3c0,0.1-0.1,0.2-0.1,0.3
			c-0.1,0.3-0.2,0.7-0.2,1c0,0,0,0,0,0v117.1c0,1.6,1.3,3,3,3h116.8c1.6,0,3-1.3,3-3L125.2,23.5C125.2,23.5,125.2,23.5,125.2,23.5z
			 M19,7.9h89.7l8.1,12.7H10.9L19,7.9z M119.3,137.7H8.4V26.5h110.9V137.7z"/>
		<path d="M36,118.4h58.6c10.3,0,18.7-8.4,18.7-18.7V54c0-10.3-8.4-18.7-18.7-18.7H36c-10.3,0-18.7,8.4-18.7,18.7v45.8
			C17.3,110.1,25.7,118.4,36,118.4z M55.3,75.5l1,0.6c0.3,0.2,0.7,0.3,1,0.3h0.9c0.4,0,0.7-0.1,1-0.3l1.3-0.8h5l-2.6,1.6L62.9,77
			H52.9L55.3,75.5z M70.8,91.3l-5.3,3.2V80.1l5.3-3.2V91.3z M61.5,96H47.8V81h13.7V96z M94.6,112.5H36c-5.6,0-10.3-3.6-12-8.6h82.6
			C104.9,108.9,100.2,112.5,94.6,112.5z M107.4,95.6l-3.1-5.3V45.8c1.9,2.2,3.1,5.1,3.1,8.2V95.6z M100.3,42.6v45.5H74.7V73.4
			c0,0,0-0.1,0-0.1c0-0.2,0-0.3,0-0.4c0-0.1-0.1-0.3-0.2-0.4c0,0,0-0.1-0.1-0.1c-0.2-0.3-0.4-0.5-0.6-0.6c0,0,0,0-0.1-0.1
			c0,0-0.1,0-0.1,0c-0.3-0.1-0.6-0.2-0.9-0.2h-9.1v-4.1h6.1c1.1,0,2-0.9,2-2V41.2h23C96.7,41.2,98.6,41.8,100.3,42.6z M44.1,41.2
			v24.1c0,1.1,0.9,2,2,2h6.1v5.2c0,0.1,0.1,0.2,0.1,0.3l-7.5,4.6c-0.1,0.1-0.1,0.1-0.2,0.2c-0.1,0.1-0.1,0.1-0.2,0.2
			c-0.1,0.1-0.2,0.3-0.3,0.5c0,0-0.1,0.1-0.1,0.1c-0.1,0.2-0.1,0.5-0.1,0.7c0,0,0,0,0,0v9.1H30.9V42.3c1.6-0.7,3.3-1.1,5.1-1.1H44.1
			z M26.9,45.1v45.4l-3.6,4.7V54C23.3,50.5,24.7,47.4,26.9,45.1z"/>
		<path d="M110.6,121.6l-34.8,0c-0.5,0-1,0.2-1.4,0.6c-0.4,0.4-0.6,0.9-0.6,1.4v9.7c0,1.1,0.9,2,2,2h34.8
			c1.1,0,2-0.9,2-2v-9.7C112.6,122.5,111.7,121.6,110.6,121.6z M108.6,131.3H77.7v-5.7l30.9,0V131.3z"/>
		<ellipse cx="81.7" cy="128.6" rx="2.2" ry="2.2"/>
		<ellipse cx="87.5" cy="128.6" rx="2.2" ry="2.2"/>
		<ellipse cx="93.4" cy="128.6" rx="2.2" ry="2.2"/>
		<ellipse cx="99.2" cy="128.6" rx="2.2" ry="2.2"/>
		<ellipse cx="105" cy="128.6" rx="2.2" ry="2.2"/>
	</g>
</g>
</svg>
