<?xml version="1.0" encoding="utf-8"?>
<!-- Generator: Adobe Illustrator 21.0.0, SVG Export Plug-In . SVG Version: 6.00 Build 0)  -->
<svg version="1.1" id="Laag_1" xmlns="http://www.w3.org/2000/svg" xmlns:xlink="http://www.w3.org/1999/xlink" x="0px" y="0px"
	 viewBox="0 0 144.6 125.9" style="enable-background:new 0 0 144.6 125.9;" xml:space="preserve">
<style type="text/css">
	.st0{fill:#FFFFFF;}
</style>
<g>
	<path class="st0" d="M137.8,68.9c0-0.8,0.1-1.5,0.1-2.3c0-30-24.3-54.2-54.2-54.2c-16,0-30.3,6.9-40.3,17.9L9.4,24.4L4.2,78.7
		l28.2,5.8c7.4,21.2,27.5,36.4,51.2,36.4c20.9,0,38.9-11.8,48-29c1.7,0,3.7-0.7,5.6-3.3C143,80.9,141.1,73.1,137.8,68.9z"/>
	<g>
		<ellipse cx="101.2" cy="96.1" rx="1.9" ry="1.9"/>
		<path d="M105,86.6c-1,0-1.9,0.9-1.9,1.9c0,1.1,0.9,1.9,1.9,1.9c1.1,0,1.9-0.8,1.9-1.9C106.9,87.4,106.1,86.6,105,86.6
			z"/>
		<ellipse cx="108.8" cy="96.1" rx="1.9" ry="1.9"/>
		<path d="M142,71.1c-0.5-1.1-1-2.1-1.7-3.1c0-0.5,0-1,0-1.5c0-18.5-8.9-35-22.7-45.3c2.3,1.1,3.8,2.2,3.8,2.2
			c0.5,0.4,1.1,0.6,1.7,0.6c0.7,0,1.4-0.3,1.9-0.8c1-1,1.1-2.5,0.3-3.6C117.8,9.5,97.6,7.2,93.1,6.8C89.9,4.4,85.5,3.2,80,3.2
			c-11.3,0-26.4,5.6-28.1,8.5c-0.5,0.9-0.5,2.1,0,3c0.3,0.6,1.2,1.5,2.9,1.5c0.2,0,0.5,0,0.8,0c0.7-0.1,1.6-0.1,2.5-0.2
			c-3.9,2-7.6,4.4-11,7.3c-0.2,0.1-1.4,0.9-1.6,1.4c-1,0.9-2,1.9-3,3L9.8,21.9c-0.7-0.1-1.4,0.1-1.9,0.5c-0.5,0.4-0.9,1-1,1.7
			L1.7,78.4c-0.1,1.3,0.7,2.4,2,2.7l26.9,5.5c8.1,21.4,28.8,36.7,53,36.7c21.3,0,39.8-11.8,49.5-29.2c1.9-0.3,4.1-1.4,6.1-4.1
			C143.6,84.2,144.6,77.3,142,71.1z M100.8,38.1c6,7,10.9,10.4,15.8,12.6c-4.7,0.4-9.2,0.3-12.8,0c-3.2-1.5-6.7-2.3-10.1-2.7
			l-3.9-4.2C94.9,41.7,98.7,39.5,100.8,38.1z M28.3,44.7L14.9,27.8l59.6,10.4L56.7,48.4c-0.7,0.4-1,1.2-0.8,1.9l12.4,39L10,77.3
			l18.4-30.7C28.7,46,28.7,45.3,28.3,44.7z M70,83.7L59.5,50.6L76.3,41L70,83.7z M81.4,42.4l8.7,9.4l-5,29.4l-10.4,6.1L81.4,42.4z
			 M95.5,51.6c3.5,0.6,7,1.7,9.7,3.8c2.6,2,4.1,4.7,4.5,8.2c0.6,5-0.3,8.9-2.8,11.7c-3,3.5-8.5,5.6-16.5,6.3L95.5,51.6z M11.5,28.8
			L25,45.9L6.9,76.1L11.5,28.8z M135.3,87.1c-1.1,1.5-2.3,2.3-3.6,2.3c0,0-0.1,0-0.1,0c-1,0-1.7-0.5-1.9-0.6c-0.4-0.4-1-0.6-1.6-0.6
			c-1.4,0-2.5,1.1-2.5,2.5c0,0.5,0,1.7,2.2,2.8c-9.1,15-25.5,25-44.3,25c-21,0-39.1-12.6-47.2-30.6l33.7,6.9
			c0.4,0.2,0.8,0.4,1.3,0.4c0.5,0,0.9-0.1,1.3-0.4l16.2-9.5C89,85.1,89,85,89.1,85c9.8-0.7,16.5-3.2,20.3-7.6c0.4-0.5,0.8-1,1.1-1.5
			c5.8-0.1,10.9-0.8,14.9-1.6c0,0.4,0.1,0.7,0.2,1c0.3,1.3,1.6,2.2,3,1.9c1.3-0.3,2.2-1.6,1.9-3c-0.3-1.1,0-4.1,1.2-5.4
			c0.4-0.4,0.8-0.6,1.3-0.5c1,0.1,3.1,1.7,4.4,4.8C138.3,75.2,139.9,80.8,135.3,87.1z"/>
	</g>
</g>
</svg>
