<?xml version="1.0" encoding="utf-8"?>
<!-- Generator: Adobe Illustrator 21.0.0, SVG Export Plug-In . SVG Version: 6.00 Build 0)  -->
<svg version="1.1" id="Laag_1" xmlns="http://www.w3.org/2000/svg" xmlns:xlink="http://www.w3.org/1999/xlink" x="0px" y="0px"
	 viewBox="0 0 70.3 146.7" style="enable-background:new 0 0 70.3 146.7;" xml:space="preserve">
<style type="text/css">
	.st0{fill:#FFFFFF;}
</style>
<g>
	<polygon class="st0" points="52.5,37.8 52.5,23.6 5.7,20 5.7,124.1 14.6,124.8 14.6,141.9 65,141.9 65,37.8 	"/>
	<g>
		<path d="M65,34.9h-9.6V23.6c0-0.3-0.1-0.6-0.2-0.9c0-0.1,0-0.1-0.1-0.2c-0.1-0.3-0.3-0.5-0.5-0.8c0,0-0.1-0.1-0.1-0.1
			c-0.1-0.1-0.2-0.2-0.4-0.3c-0.1-0.1-0.2-0.1-0.3-0.1c-0.1,0-0.1-0.1-0.2-0.1c-0.3-0.1-0.6-0.2-0.9-0.2c0,0,0,0-0.1,0l-8-0.6V5.8
			c0-0.9-0.5-1.8-1.2-2.3c-0.8-0.5-1.8-0.6-2.6-0.3L4.6,17.4c-0.3,0.1-0.6,0.3-0.8,0.5c0,0,0,0-0.1,0c0,0-0.1,0.1-0.1,0.1
			c-0.2,0.2-0.3,0.4-0.5,0.7c0,0.1-0.1,0.2-0.1,0.3c-0.1,0.3-0.2,0.7-0.2,1v104.1c0,0.3,0.1,0.6,0.2,0.9c0,0.1,0,0.1,0.1,0.2
			c0.1,0.3,0.3,0.5,0.5,0.8c0,0,0.1,0,0.1,0.1c0.1,0.1,0.3,0.3,0.4,0.4c0.1,0,0.1,0.1,0.2,0.1c0.1,0.1,0.2,0.1,0.3,0.1
			c0.2,0.1,0.4,0.1,0.7,0.2c0.1,0,0.1,0,0.2,0.1l6.3,0.5v14.5c0,0.3,0.1,0.7,0.2,1c0,0.1,0,0.1,0.1,0.2c0.1,0.3,0.3,0.5,0.5,0.8
			c0,0,0.1,0.1,0.1,0.1c0.1,0.1,0.2,0.2,0.3,0.3c0.1,0.1,0.2,0.1,0.3,0.2c0.1,0.1,0.2,0.1,0.3,0.1c0.3,0.1,0.7,0.2,1,0.2H65
			c1.6,0,2.8-1.3,2.8-2.8V37.8C67.8,36.2,66.5,34.9,65,34.9z M8.5,121.5V23.1l31,2.3l-25.9,9.7c0,0,0,0-0.1,0
			c-0.1,0-0.1,0.1-0.2,0.1c-0.2,0.1-0.4,0.3-0.6,0.4c-0.1,0.1-0.1,0.1-0.2,0.2c-0.2,0.2-0.3,0.4-0.4,0.6c0,0.1-0.1,0.2-0.1,0.3
			c-0.1,0.3-0.2,0.6-0.2,1v84L8.5,121.5z M62.1,139H17.4V40.6h2.1c0.7,5.2,4.9,11,5.5,11.9c3.1,4.1,7.5,6,11.7,7.9
			c4.1,1.8,8.1,3.5,10.9,7.2c6.5,8.5,2.3,16.5-2.3,25c-4.1,7.7-8.7,16.4-2.5,24.7l-5.6-2.7c-0.9-0.5-2.1-0.1-2.5,0.9
			c-0.5,0.9-0.1,2.1,0.9,2.5l11.8,5.7c0.3,0.1,0.5,0.2,0.8,0.2c0.3,0,0.6-0.1,0.9-0.2c0.5-0.3,0.9-0.8,1-1.4l2.5-14
			c0.2-1-0.5-2-1.5-2.2c-1-0.2-2,0.5-2.2,1.5l-1.6,8.9c-6.4-6.5-3.6-12.7,1.4-22.2c4.7-8.7,9.9-18.6,1.9-29c-3.4-4.4-8-6.4-12.4-8.3
			c-4-1.7-7.7-3.4-10.3-6.7c-2-2.7-4.1-6.6-4.7-9.6h38.8V139z"/>
		<path d="M19.4,99.2c-1.1,0.3-1.7,1.4-1.4,2.4c0.3,1.1,1.4,1.7,2.5,1.4c1.1-0.3,1.7-1.4,1.4-2.5C21.6,99.6,20.5,98.9,19.4,99.2z"/>
		<path d="M29.4,133.9c-1.1,0.3-1.7,1.4-1.4,2.5c0.3,1.1,1.4,1.7,2.5,1.4c1.1-0.3,1.7-1.4,1.4-2.5C31.6,134.3,30.5,133.6,29.4,133.9
			z"/>
		<ellipse transform="matrix(0.966 -0.2585 0.2585 0.966 -33.3028 14.2907)" cx="37.7" cy="133.8" rx="2" ry="2"/>
		<ellipse transform="matrix(0.9661 -0.2582 0.2582 0.9661 -24.6416 10.5035)" cx="27.7" cy="99.1" rx="2" ry="2"/>
		<path d="M36,98.9c1.1-0.3,1.7-1.4,1.4-2.5c-0.3-1.1-1.4-1.7-2.5-1.4c-1.1,0.3-1.7,1.4-1.4,2.5C33.8,98.6,34.9,99.2,36,98.9z"/>
		<ellipse transform="matrix(0.9658 -0.2591 0.2591 0.9658 -12.5918 12.6061)" cx="41.5" cy="54.1" rx="2" ry="2"/>
		<path d="M49.8,53.9c1.1-0.3,1.7-1.4,1.4-2.5c-0.3-1.1-1.4-1.7-2.5-1.4c-1.1,0.3-1.7,1.4-1.4,2.4C47.6,53.6,48.7,54.2,49.8,53.9z"
			/>
		<path d="M57.6,51.8c1.1-0.3,1.7-1.4,1.4-2.5c-0.3-1.1-1.4-1.7-2.5-1.4c-1.1,0.3-1.7,1.4-1.4,2.5C55.4,51.5,56.5,52.1,57.6,51.8z"
			/>
		<path d="M31.2,125.2c-1.1,0.3-1.7,1.4-1.4,2.5c0.3,1.1,1.4,1.7,2.5,1.4c1.1-0.3,1.7-1.4,1.4-2.5C33.4,125.5,32.3,124.9,31.2,125.2
			z"/>
		<ellipse transform="matrix(0.9658 -0.2595 0.2595 0.9658 -31.0818 14.5313)" cx="39.5" cy="125" rx="2" ry="2"/>
		<ellipse transform="matrix(0.966 -0.2584 0.2584 0.966 -20.0117 10.8623)" cx="31.3" cy="81.5" rx="2" ry="2"/>
		<path d="M39.6,81.4c1.1-0.3,1.7-1.4,1.4-2.4c-0.3-1.1-1.4-1.7-2.5-1.4c-1.1,0.3-1.7,1.4-1.4,2.5C37.4,81.1,38.5,81.7,39.6,81.4z"
			/>
		<ellipse transform="matrix(0.966 -0.2585 0.2585 0.966 -18.4091 14.7399)" cx="46.9" cy="77.4" rx="2" ry="2"/>
		<ellipse transform="matrix(0.9661 -0.2582 0.2582 0.9661 -22.3163 10.6749)" cx="29.5" cy="90.3" rx="2" ry="2"/>
		<path d="M37.8,90.2c1.1-0.3,1.7-1.4,1.4-2.5c-0.3-1.1-1.4-1.7-2.5-1.4c-1.1,0.3-1.7,1.4-1.4,2.5C35.6,89.8,36.7,90.5,37.8,90.2z"
			/>
		<ellipse transform="matrix(0.9662 -0.2579 0.2579 0.9662 -20.6931 14.5284)" cx="45" cy="86.2" rx="2" ry="2"/>
		<ellipse transform="matrix(0.9663 -0.2574 0.2574 0.9663 -10.2011 12.6849)" cx="43.3" cy="45.3" rx="2" ry="2"/>
		<path d="M27.3,74.3c-0.3-1.1-1.4-1.7-2.5-1.4c-1.1,0.3-1.7,1.4-1.4,2.5c0.3,1.1,1.4,1.7,2.5,1.4C26.9,76.5,27.6,75.4,27.3,74.3z"
			/>
	</g>
</g>
</svg>
