<?xml version="1.0" encoding="utf-8"?>
<!-- Generator: Adobe Illustrator 21.0.0, SVG Export Plug-In . SVG Version: 6.00 Build 0)  -->
<svg version="1.1" id="Laag_1" xmlns="http://www.w3.org/2000/svg" xmlns:xlink="http://www.w3.org/1999/xlink" x="0px" y="0px"
	 viewBox="0 0 148.5 68" style="enable-background:new 0 0 148.5 68;" xml:space="preserve">
<style type="text/css">
	.st0{fill:#FFFFFF;}
</style>
<g>
	<g>
		<path class="st0" d="M120.9,11.9H26.6c-11.7,0-21.2,9.5-21.2,21.2s9.5,21.2,21.2,21.2h94.2c11.7,0,21.2-9.5,21.2-21.2
			S132.6,11.9,120.9,11.9z"/>
		<ellipse class="st0" cx="104.9" cy="61.4" rx="3.6" ry="1.4"/>
		<ellipse class="st0" cx="42.6" cy="61.4" rx="3.6" ry="1.4"/>
	</g>
	<g>
		<circle cx="79.8" cy="45.2" r="1.5"/>
		<circle cx="85.9" cy="45.2" r="1.5"/>
		<circle cx="82.9" cy="27.1" r="1.5"/>
		<circle cx="88.9" cy="27.1" r="1.5"/>
		<circle cx="79.8" cy="21.1" r="1.5"/>
		<circle cx="85.9" cy="21.1" r="1.5"/>
		<circle cx="82.9" cy="39.2" r="1.5"/>
		<circle cx="88.9" cy="39.2" r="1.5"/>
		<circle cx="85.9" cy="33.1" r="1.5"/>
		<circle cx="91.9" cy="33.1" r="1.5"/>
		<circle cx="97.9" cy="45.2" r="1.5"/>
		<circle cx="104" cy="45.2" r="1.5"/>
		<circle cx="116" cy="45.2" r="1.5"/>
		<circle cx="122" cy="45.2" r="1.5"/>
		<circle cx="100.9" cy="27.1" r="1.5"/>
		<circle cx="107" cy="27.1" r="1.5"/>
		<circle cx="119" cy="27.1" r="1.5"/>
		<circle cx="125.1" cy="27.1" r="1.5"/>
		<circle cx="97.9" cy="21.1" r="1.5"/>
		<circle cx="104" cy="21.1" r="1.5"/>
		<circle cx="116" cy="21.1" r="1.5"/>
		<circle cx="122" cy="21.1" r="1.5"/>
		<circle cx="100.9" cy="39.2" r="1.5"/>
		<circle cx="107" cy="39.2" r="1.5"/>
		<circle cx="119" cy="39.2" r="1.5"/>
		<circle cx="125.1" cy="39.2" r="1.5"/>
		<circle cx="104" cy="33.1" r="1.5"/>
		<circle cx="110" cy="33.1" r="1.5"/>
		<circle cx="122" cy="33.1" r="1.5"/>
		<circle cx="128.1" cy="33.1" r="1.5"/>
		<circle cx="24.1" cy="45.2" r="1.5"/>
		<circle cx="30.1" cy="45.2" r="1.5"/>
		<circle cx="27.1" cy="27.1" r="1.5"/>
		<circle cx="33.2" cy="27.1" r="1.5"/>
		<circle cx="24.1" cy="21.1" r="1.5"/>
		<circle cx="30.1" cy="21.1" r="1.5"/>
		<circle cx="27.1" cy="39.2" r="1.5"/>
		<circle cx="33.2" cy="39.2" r="1.5"/>
		<circle cx="30.1" cy="33.1" r="1.5"/>
		<circle cx="36.2" cy="33.1" r="1.5"/>
		<circle cx="42.2" cy="45.2" r="1.5"/>
		<circle cx="48.2" cy="45.2" r="1.5"/>
		<circle cx="60.3" cy="45.2" r="1.5"/>
		<circle cx="66.3" cy="45.2" r="1.5"/>
		<circle cx="45.2" cy="27.1" r="1.5"/>
		<circle cx="51.2" cy="27.1" r="1.5"/>
		<circle cx="63.3" cy="27.1" r="1.5"/>
		<circle cx="69.3" cy="27.1" r="1.5"/>
		<circle cx="42.2" cy="21.1" r="1.5"/>
		<circle cx="48.2" cy="21.1" r="1.5"/>
		<circle cx="60.3" cy="21.1" r="1.5"/>
		<circle cx="66.3" cy="21.1" r="1.5"/>
		<circle cx="45.2" cy="39.2" r="1.5"/>
		<circle cx="51.2" cy="39.2" r="1.5"/>
		<circle cx="63.3" cy="39.2" r="1.5"/>
		<circle cx="69.3" cy="39.2" r="1.5"/>
		<circle cx="48.2" cy="33.1" r="1.5"/>
		<circle cx="54.3" cy="33.1" r="1.5"/>
		<circle cx="66.3" cy="33.1" r="1.5"/>
		<circle cx="72.3" cy="33.1" r="1.5"/>
		<path d="M120.9,9.4H113c-0.4-3-3.8-5.4-8.1-5.4c-4.2,0-7.6,2.3-8.1,5.3c0,0,0,0.1,0,0.1H50.7c-0.4-3-3.8-5.4-8.1-5.4
			c-4.3,0-7.7,2.4-8.1,5.4h-7.8C13.6,9.4,2.9,20,2.9,33.1s10.7,23.7,23.7,23.7h7.8v2c0,0.1,0,0.2,0,0.3c0,0.1,0,0.1,0,0.2
			c0,3.3,3.7,6,8.2,6c4.2,0,7.6-2.3,8.1-5.3c0-0.1,0-0.3,0.1-0.4c0-0.1,0-0.2,0-0.3c0,0,0,0,0,0c0-0.2,0.1-0.3,0.1-0.5v-2h45.9v1.8
			c0,0.1,0,0.3,0,0.4c0,0,0,0.1,0,0.1c0,3.3,3.7,6,8.2,6c4.5,0,8.2-2.7,8.2-6c0,0,0-0.1,0-0.1c0-0.1,0-0.3,0-0.4v-1.8h7.8
			c13.1,0,23.7-10.7,23.7-23.7S134,9.4,120.9,9.4z M42.6,62.8c-2,0-3.6-0.6-3.6-1.4s1.6-1.4,3.6-1.4c2,0,3.6,0.6,3.6,1.4
			S44.6,62.8,42.6,62.8z M104.9,62.8c-2,0-3.6-0.6-3.6-1.4s1.6-1.4,3.6-1.4c2,0,3.6,0.6,3.6,1.4S106.9,62.8,104.9,62.8z M120.9,51.9
			H26.6c-10.3,0-18.7-8.4-18.7-18.7c0-10.3,8.4-18.7,18.7-18.7h94.2c10.3,0,18.7,8.4,18.7,18.7C139.6,43.5,131.2,51.9,120.9,51.9z"
			/>
	</g>
</g>
</svg>
