<?xml version="1.0" encoding="utf-8"?>
<!-- Generator: Adobe Illustrator 21.0.0, SVG Export Plug-In . SVG Version: 6.00 Build 0)  -->
<svg version="1.1" id="Laag_1" xmlns="http://www.w3.org/2000/svg" xmlns:xlink="http://www.w3.org/1999/xlink" x="0px" y="0px"
	 viewBox="0 0 129 149.5" style="enable-background:new 0 0 129 149.5;" xml:space="preserve">
<style type="text/css">
	.st0{fill:#FFFFFF;}
</style>
<g>
	<polygon class="st0" points="123.2,102.8 107.2,87 72.3,87.3 72.3,79 111.7,79.7 112.4,47.9 72.3,47.3 72.3,38.9 114.6,38.7 
		114.4,6.9 22,7.5 6.2,23.4 22.2,39.2 58,39 58,47 24.7,46.5 8.5,62 24,78.2 58,78.8 58,87.4 19.6,87.7 19.9,119.4 58,119.1 
		58,142.9 72.3,142.9 72.3,119 107.4,118.8 	"/>
	<g>
		<path d="M125.2,100.7l-16-15.8c-0.5-0.5-1.3-0.8-2-0.8l-32,0.2v-2.4l36.5,0.6c0,0,0,0,0,0c1.6,0,2.9-1.2,2.9-2.8l0.7-31.7
			c0-0.8-0.3-1.5-0.8-2.1c-0.5-0.6-1.3-0.9-2-0.9l-37.3-0.6v-2.6l39.4-0.2c0.8,0,1.5-0.3,2-0.9c0.5-0.5,0.8-1.3,0.8-2l-0.2-31.8
			c0-1.6-1.3-2.9-2.9-2.9h0L22,4.6c-0.8,0-1.5,0.3-2,0.9l-15.8,16c-0.5,0.5-0.8,1.3-0.8,2c0,0.8,0.3,1.5,0.9,2l16,15.8
			c0.5,0.5,1.3,0.8,2,0.8h0l32.9-0.2v2.2l-30.3-0.5c-0.8-0.1-1.5,0.3-2,0.8L6.5,59.9C5.4,61,5.3,62.8,6.4,64l15.5,16.2
			c0.5,0.6,1.3,0.9,2,0.9l31.1,0.5v2.9l-35.5,0.3c-1.6,0-2.9,1.3-2.9,2.9l0.2,31.8c0,0.8,0.3,1.5,0.9,2c0.5,0.5,1.3,0.8,2,0.8h0
			l35.2-0.3v20.8c0,1.6,1.3,2.9,2.9,2.9h14.3c1.6,0,2.9-1.3,2.9-2.9v-21l32.3-0.2c0.8,0,1.5-0.3,2-0.9l15.8-16
			c0.5-0.5,0.8-1.3,0.8-2C126.1,102,125.8,101.2,125.2,100.7z M10.3,23.4l12.9-13.1l88.3-0.5l0.2,26l-88.3,0.5L10.3,23.4z
			 M60.8,41.9l8.5,0v2.5l-8.5-0.1V41.9z M12.6,62.1l13.3-12.7l83.6,1.4l-0.6,26l-83.6-1.4L12.6,62.1z M60.8,81.7l8.5,0.1v2.6
			l-8.5,0.1V81.7z M69.4,140h-8.5v-18l8.5-0.1V140z M106.2,115.9l-83.5,0.6l-0.2-26l83.5-0.6l13.1,12.9L106.2,115.9z"/>
		<path d="M48.7,53.2l-1.2,0.9c0.6,0.5,1.6,1.7,2,2.3l1.2-1C50.3,54.8,49.4,53.8,48.7,53.2z"/>
		<polygon points="35.5,59 45.3,59.3 45.1,65.7 35.1,65.4 35.1,68 45,68.3 45,69.2 47.8,69.3 48.2,56.8 35.6,56.5 		"/>
		<path d="M47.7,55.7c-0.5-0.6-1.4-1.7-2.1-2.3l-1.2,0.9c0.6,0.5,1.6,1.7,2,2.4L47.7,55.7z"/>
		<path d="M51.7,63.6c0.3,0,0.5-0.1,0.7-0.3l14.1,0.4l0.1-2.7l-14.9-0.4L51.7,63.6z"/>
		<path d="M76.1,57.2c-1.2-0.7-2.9-1.4-4.5-1.9l-1.3,2.1c1.6,0.6,3.1,1.3,4.4,2.1L76.1,57.2z"/>
		<path d="M73.7,61.4c-1.1-0.6-2.8-1.3-4.4-1.8l-1.2,2.2c1.5,0.5,3.3,1.3,4.4,1.9L73.7,61.4z"/>
		<path d="M81.4,58.5c-2.6,5.2-6.7,7.9-12.1,9.3l1.9,2.8c0.3-0.1,0.4-0.3,0.3-0.5c5-1.5,9.6-4.8,12.2-9.7
			C83.1,59.9,81.9,59,81.4,58.5z"/>
		<path d="M93.3,61.3c0.1,0,0.3-0.2,0.3-0.3L92,60.2l-0.4,0.1l-6.9-0.2l-0.1,2.1l6.2,0.2c-0.2,1.5-0.6,3.9-0.9,5.4l-6.8-0.2
			l-0.1,2.1l12.2,0.4l0.1-2.1l-3.2-0.1C92.5,66.3,93.1,62.9,93.3,61.3z"/>
		<path d="M38,15.6c-4.5-0.1-8.3,3.1-8.4,7.8c0,3.2,1.4,4.9,3.5,4.9c3.1,0,4.9-2.8,5.8-9.2c0.3,0,0.5-0.1,0.6-0.3l-2.7-0.6
			c0.4,0,0.7-0.1,1.1-0.1c2.9,0,4.9,1.7,4.9,4.5c0,2.6-1.5,4.5-5.5,5.2c0.7,0.7,1.3,1.6,1.7,2.3c4.6-1.2,6.7-3.4,6.7-7.6
			C45.7,18.5,43,15.6,38,15.6z M33.2,25.6c-0.8,0-1-1-1-2.3c0-2.3,1.5-4.3,3.8-5C35.8,22.2,34.8,25.6,33.2,25.6z"/>
		<path d="M61.2,26.7l-2,1.3c0.3,0.2,0.6,0.5,0.9,0.7c-0.6-0.1-1.6-0.4-2-0.8c-0.1,1.1-0.2,1.3-0.7,1.3l-1.7,0
			c-0.6,0-0.7-0.1-0.7-0.5l0-0.8c0.1,0,0.1,0,0.1,0c0.6,0.4,1.2,0.7,1.6,1l1.6-1.6c-0.2-0.2-0.6-0.4-1-0.6l4.3,0.1l0.1-5.6l-11-0.2
			l-0.1,5.6l3.6,0.1l-0.6,0.5c0.2,0.1,0.4,0.2,0.6,0.3l-1.9-0.1l0,1.4c0,1.8,0.5,2.4,2.9,2.5l2.3,0c1.7,0,2.3-0.5,2.6-2.4
			c0.9,0.7,1.7,1.6,2.2,2.2l2.1-1.4C63.8,28.7,62.4,27.5,61.2,26.7z M53.2,22.6l5.9,0.1l0,0.4L53.2,23L53.2,22.6z M53.1,25l0-0.4
			l5.9,0.1l0,0.4L53.1,25z"/>
		<path d="M47.6,29.4l2,1.4c1.3-0.7,2.1-1.9,2.6-3.2l-2.1-0.9C49.6,27.9,48.8,28.8,47.6,29.4z"/>
		<path d="M64.4,18.8l-4.2-0.1c0.2-0.4,0.4-0.7,0.6-1.1c0.2,0,0.3,0,0.4-0.1l1.9,0l0-1.9l-5.5-0.1l0-0.8c0.4-0.1,0.5-0.2,0.5-0.4
			L55,14.3l0,1.3l-5.5-0.1l0,1.9l2.8,0l-0.4,0.1c0.1,0.3,0.2,0.7,0.3,1.1L48,18.6l0,1.9l16.4,0.2L64.4,18.8z M57.7,18.7l-3.1,0
			c-0.1-0.4-0.2-0.8-0.4-1.2l3.8,0.1C58,17.9,57.9,18.4,57.7,18.7z"/>
		<path d="M80.4,24.4l2.7,0l0-2.5l-3.7-0.1l0-2l3.3,0l0-2.5l-3.3,0l0-2.1c0.4-0.1,0.5-0.2,0.5-0.4l-3.2-0.2l0,2.7l-3.1,0l0,2.5
			l3.1,0l0,2l-3.5,0l0,2.5l2.6,0c-1.2,1.8-2.9,3.5-4.9,4.4c0.6,0.5,1.4,1.5,1.8,2.1c1.5-0.9,2.9-2.1,4-3.6l-0.1,4.3l2.6,0l0.1-4.6
			c0.7,1.5,1.5,2.8,2.4,3.7c0.4-0.7,1.3-1.6,1.9-2C82.4,27.7,81.2,26.1,80.4,24.4z"/>
		<path d="M73.2,16.3l-6-0.1l-0.2,11.5l2.4,0l0-1.4l3.6,0L73.2,16.3z M70.6,23.9l-1.1,0l0.1-5.3l1.1,0L70.6,23.9z"/>
		<path d="M91.9,25.5c0-1.9,2.4-4.1,4-5.3c1.4-1,2.3-1.2,4-1.1l0-2.9c-3.4,0.1-10.4,0.5-12.7,0.6c-0.5,0-1.4,0-1.9,0l0.2,3.1
			c0.2,0,0.4-0.2,0.5-0.3c1.3-0.1,4.9-0.4,7.2-0.6c-2.4,1.8-4.2,4.4-4.3,6.5c0,3,2,5.3,7.1,6l1.4-2.7C93.7,28.4,91.9,27.4,91.9,25.5
			z"/>
		<path d="M99.5,20l-1.2,0.9c0.6,0.6,1.6,1.8,2,2.4l1.2-0.9C101.1,21.6,100.3,20.6,99.5,20z"/>
		<path d="M97.3,21.6l-1.2,0.9c0.6,0.5,1.6,1.8,2,2.5l1.2-0.9C98.9,23.2,98,22.2,97.3,21.6z"/>
		<path d="M39.9,99.4L39.9,99.4c-0.6,0.4-1.4,1-1.9,1.3l2.4,1.1c1.3-1.1,3.5-2.3,5.8-2.7l-0.2-2.8c-1.1,0.2-2.5,0.4-3.6,0.4
			c-1.2,0.1-3.7,0.1-5.4,0.1c-0.6,0-1.1,0-1.4,0c0.1,0.6,0.1,2,0.1,2.6C37,99.6,39.3,99.5,39.9,99.4z"/>
		<path d="M41.5,107.9c-1.9,0-4.1,0-4.1-2c0-0.7,0.4-1.5,1.2-2.2l-2.3-1c-0.9,1-1.6,2.3-1.6,3.7c0,1.6,1,3.3,3.4,3.8
			c0.8,0.2,2.3,0.2,3.8,0.2c1.9,0,4-0.1,5.3-0.3l-0.2-2.8C45.4,107.7,43.3,107.9,41.5,107.9z"/>
		<path d="M58.8,106c0-0.8,0.5-1.6,1.2-2.4l-2.6-0.8c-0.9,1.1-1.5,2.3-1.5,3.6c0,3.4,4.2,3.4,6.6,3.4c0.7,0,1.4,0,2-0.1l0.1-2.7
			c-0.8,0.1-1.8,0.2-2.6,0.2C59.6,107.2,58.8,106.9,58.8,106z"/>
		<path d="M52.7,106.5c-0.1-0.3-0.1-0.7-0.1-1.2c0-2.5,0.2-5.4,0.9-8.6c0.3,0,0.5-0.2,0.5-0.4l-3.4-0.4c-0.4,2.9-0.8,6.2-0.8,8.7
			c0,2.4,0.3,4.8,0.8,6.5l2.7-0.4c0-0.2-0.1-0.4-0.1-0.7c0-0.3,0.1-0.6,0.1-0.9c0.3-0.9,0.9-1.9,1.5-2.8l-1.2-2.1
			C53.5,104.7,52.9,106.1,52.7,106.5z"/>
		<path d="M64.1,99.9l-0.2-2.7c-2.1,0.4-5.6,0.6-7.5,0.7l0.1,2.6C58.6,100.5,62,100.2,64.1,99.9z"/>
		<path d="M76.5,102.1c-1.4,0-3,0.5-4.1,1.3c0.2-0.4,0.3-1.3,0.6-2.8c2.1-0.1,4.7-0.4,6.8-0.9L79.2,97c-1.9,0.5-4.4,0.9-6.1,1
			c0.1-0.6,0.1-1.4,0.1-2.1c0.2-0.1,0.5-0.2,0.5-0.4l-3.4-0.3c0,1,0,2.1-0.1,2.9c-1.3,0-3,0-3.9-0.1v2.6h3.7
			c-0.2,2.6-0.9,4.7-1.4,5.3l2.6,1.1c1.1-1.8,3.3-2.4,4.6-2.4c1.4,0,2,0.5,2,1.7c0,1.8-2.6,2.6-7.6,2.7c0.3,0.5,0.6,1.8,0.8,2.5
			c6.3-0.1,9.6-1.5,9.6-5.3C80.7,103.3,78.8,102.1,76.5,102.1z"/>
		<path d="M95.6,101.7c1.2-0.1,2.3-0.2,3-0.4l-0.2-2.6c-0.8,0.2-1.8,0.4-2.9,0.6v-3.1c0.3-0.1,0.4-0.2,0.4-0.4l-3.3-0.1
			c0,1.3,0.1,2.5,0.1,3.8c-0.8,0-2.3,0.1-2.9,0.1c-0.2,0-0.5,0-0.8,0l0,2.5h2.4c0.3,0,0.9,0,1.4,0c0.1,1.1,0.1,2.3,0.2,3.2
			c-0.3,0-0.5,0-0.8,0c-1.9,0-3.6,1.1-3.6,3c0,1.7,1.3,3,3.6,3c1.2,0,3.2-0.2,3.6-2.4c0.6,0.4,1.2,1,1.7,1.5l1.4-2.6
			c-0.9-0.8-2-1.4-3.2-1.9C95.7,104.6,95.6,103.2,95.6,101.7z M92.3,108.9c-0.7,0-1.3-0.3-1.3-0.8c0-0.6,0.6-0.8,1.4-0.8
			c0.3,0,0.7,0.1,1,0.2c0,0.2,0,0.3,0,0.4C93.4,108.4,93,108.9,92.3,108.9z"/>
		<path d="M86.1,106.4c0-0.2,0-0.4,0-0.7c0-2.5,0-5.1,1.1-9c0.2,0,0.5-0.2,0.5-0.4l-3.3-0.6c-0.5,2.7-0.9,5.2-0.9,8
			c0,2.5,0.2,5.6,0.7,7.1l2.6-0.1c0-0.3,0-0.5,0-0.7c0-0.4,0.1-0.7,0.2-1.1c0.4-1,1-2.4,1.4-3.1L87,104
			C86.8,104.5,86.3,105.9,86.1,106.4z"/>
	</g>
</g>
</svg>
