<?xml version="1.0" encoding="utf-8"?>
<!-- Generator: Adobe Illustrator 21.0.0, SVG Export Plug-In . SVG Version: 6.00 Build 0)  -->
<svg version="1.1" id="Laag_1" xmlns="http://www.w3.org/2000/svg" xmlns:xlink="http://www.w3.org/1999/xlink" x="0px" y="0px"
	 viewBox="0 0 148.5 129.5" style="enable-background:new 0 0 148.5 129.5;" xml:space="preserve">
<style type="text/css">
	.st0{fill:#FFFFFF;}
</style>
<g>
	<path class="st0" d="M138.1,18.1L90.6,7.3c-3-0.7-6,1.2-6.7,4.2L83.7,12l-20-1.1c-3.1-0.2-5.8,2.2-5.9,5.3l-0.1,1.6l-22.9,2.8
		c-3.1,0.4-5.3,3.2-4.9,6.3l0.1,0.5L9.3,34.6c-2.9,1-4.5,4.2-3.5,7.2l26.9,78c1,2.9,4.2,4.5,7.2,3.5l39.4-13.6l15.6-1.9
		c1-0.1,1.9-0.5,2.6-1.1l9.6,0.5l10.3,2.3c3,0.7,6-1.2,6.7-4.2l18.3-80.5C143,21.8,141.2,18.8,138.1,18.1z"/>
	<g>
		<path d="M107.4,42.9c-2,2.4-4.8,5.5-11.6,8.6c-11.7,5.3-4.5,17.8,5.1,13.9c-1.3,3.5-3.7,5.7-5.9,6.4l-0.3,1.2l5.9,1.3l5.9,1.3
			l0.2-1.2c-1.6-1.5-2.9-4.5-2.7-8.2c7.1,7.6,18.9-0.8,10.4-10.5C109.5,49.9,108.2,45.9,107.4,42.9z"/>
		<path d="M46,39.2l0-0.5C45,38.3,44,37,43.9,35.2c0.4,0.2,0.8,0.4,1,0.6c0.5,0.5,1.2,0.7,1.9,0.7c1.4-0.1,2.5-1.3,2.3-2.8
			s-1.3-2.5-2.7-2.4c-0.7,0.1-1.4,0.4-1.8,0.9c-0.2,0.2-0.5,0.5-0.9,0.7c0.1-0.7,0.6-1.5,1-1.9c0.5-0.5,0.7-1.2,0.6-1.9
			c-0.1-1.4-1.3-2.5-2.7-2.4c-1.4,0.1-2.4,1.4-2.3,2.8c0.1,0.7,0.4,1.4,0.9,1.8c0.4,0.3,1,1.1,1.2,1.8c-0.4-0.2-0.7-0.4-1-0.6
			c-0.5-0.5-1.2-0.7-1.9-0.7c-1.4,0.1-2.5,1.3-2.3,2.8c0.1,1.4,1.3,2.5,2.7,2.4c0.7-0.1,1.4-0.4,1.8-0.9c0.2-0.2,0.5-0.5,0.9-0.8
			c0.1,1.8-0.7,3.2-1.5,3.8l0,0.5l2.4-0.2L46,39.2z"/>
		<polygon points="72.5,24.7 69,18.1 64.7,24.1 68.2,30.7 		"/>
		<path d="M21.7,38.4c-1.6,0.2-2.7,1.8-2.7,3.5c-1.1-1.3-3-1.8-4.3-0.9c-1.4,1-1.4,2.8-0.4,4.3c1.2,1.7,7.8,4.9,7.8,4.9
			c0,0,3-6.7,2.8-8.8C24.6,39.6,23.3,38.2,21.7,38.4z"/>
		<ellipse transform="matrix(0.2441 -0.9698 0.9698 0.2441 -13.3623 137.4365)" cx="81.5" cy="77.3" rx="1.4" ry="1.4"/>
		<ellipse transform="matrix(0.2434 -0.9699 0.9699 0.2434 -8.3878 131.5376)" cx="80.1" cy="71.1" rx="1.4" ry="1.4"/>
		<ellipse transform="matrix(0.2441 -0.9698 0.9698 0.2441 -16.1542 131.1075)" cx="76" cy="75.9" rx="1.4" ry="1.4"/>
		<ellipse transform="matrix(0.2435 -0.9699 0.9699 0.2435 -25.9912 143.0838)" cx="78.7" cy="88.2" rx="1.4" ry="1.4"/>
		<ellipse transform="matrix(0.2441 -0.9697 0.9697 0.2441 -33.7534 142.6435)" cx="74.6" cy="93" rx="1.4" ry="1.4"/>
		<ellipse transform="matrix(0.2441 -0.9698 0.9698 0.2441 -30.9577 148.9806)" cx="80.1" cy="94.3" rx="1.4" ry="1.4"/>
		<ellipse transform="matrix(0.2447 -0.9696 0.9696 0.2447 -28.2045 155.238)" cx="85.5" cy="95.7" rx="1.4" ry="1.4"/>
		<ellipse transform="matrix(0.2444 -0.9697 0.9697 0.2444 -25.3947 161.6053)" cx="91" cy="97.1" rx="1.4" ry="1.4"/>
		<ellipse transform="matrix(0.2447 -0.9696 0.9696 0.2447 -20.4805 155.6132)" cx="89.6" cy="91" rx="1.4" ry="1.4"/>
		<ellipse transform="matrix(0.2434 -0.9699 0.9699 0.2434 -23.1919 149.4225)" cx="84.2" cy="89.6" rx="1.4" ry="1.4"/>
		<ellipse transform="matrix(0.2446 -0.9696 0.9696 0.2446 -3.5275 125.4748)" cx="78.8" cy="65" rx="1.4" ry="1.4"/>
		<ellipse transform="matrix(0.245 -0.9695 0.9695 0.245 -22.6476 167.8594)" cx="96.5" cy="98.5" rx="1.4" ry="1.4"/>
		<ellipse transform="matrix(0.2435 -0.9699 0.9699 0.2435 -28.7874 136.7513)" cx="73.3" cy="86.8" rx="1.4" ry="1.4"/>
		<ellipse transform="matrix(0.2434 -0.9699 0.9699 0.2434 -21.0531 137.1288)" cx="77.4" cy="82.1" rx="1.4" ry="1.4"/>
		<ellipse transform="matrix(7.359177e-02 -0.9973 0.9973 7.359177e-02 -17.884 133.0878)" cx="62.7" cy="76.2" rx="1.4" ry="1.4"/>
		<ellipse transform="matrix(7.292873e-02 -0.9973 0.9973 7.292873e-02 -26.2218 134.946)" cx="59.5" cy="81.6" rx="1.4" ry="1.4"/>
		<ellipse transform="matrix(7.352547e-02 -0.9973 0.9973 7.352547e-02 -41.7957 152.2514)" cx="61" cy="98.6" rx="1.4" ry="1.4"/>
		<ellipse transform="matrix(7.352547e-02 -0.9973 0.9973 7.352547e-02 -38.2129 144.4723)" cx="58.7" cy="92.8" rx="1.4" ry="1.4"/>
		<ellipse transform="matrix(7.353036e-02 -0.9973 0.9973 7.353036e-02 -29.8384 142.6716)" cx="61.9" cy="87.4" rx="1.4" ry="1.4"/>
		<ellipse transform="matrix(0.9901 -0.1406 0.1406 0.9901 -12.4891 7.0693)" cx="43.8" cy="91.9" rx="1.4" ry="1.4"/>
		<ellipse transform="matrix(0.9902 -0.1399 0.1399 0.9902 -14.6572 7.9097)" cx="48.9" cy="108.2" rx="1.4" ry="1.4"/>
		<ellipse transform="matrix(0.9901 -0.1401 0.1401 0.9901 -13.9855 7.3686)" cx="45.4" cy="103" rx="1.4" ry="1.4"/>
		<ellipse transform="matrix(0.9901 -0.1407 0.1407 0.9901 -13.1827 7.625)" cx="47.3" cy="97.1" rx="1.4" ry="1.4"/>
		<ellipse transform="matrix(0.9428 -0.3334 0.3334 0.9428 -36.6417 20.1273)" cx="40.3" cy="116.8" rx="1.4" ry="1.4"/>
		<ellipse transform="matrix(0.9427 -0.3338 0.3338 0.9427 -35.4875 18.3961)" cx="35.8" cy="112.5" rx="1.4" ry="1.4"/>
		<path d="M138.6,15.8L91.1,5c-0.6-0.1-1.2-0.2-1.8-0.2c-3.2,0-6,1.9-7.3,4.8v0l-18.2-1c-4.3-0.3-8,3-8.4,7.2l-21,2.6
			c-2.1,0.3-4,1.3-5.3,3c-1.3,1.7-1.9,3.8-1.6,5.9c-0.1-0.5-0.1-1,0-1.4L8.5,32.4c-2,0.7-3.6,2.1-4.6,4c-0.9,1.9-1.1,4.1-0.4,6.1
			l26.9,78c1.1,3.2,4.1,5.4,7.5,5.4c0.9,0,1.8-0.1,2.6-0.4L79.7,112l15.3-1.9c0.8-0.1,1.6-0.6,2.4-1l9.3,0.5l10.1,2.3
			c0.6,0.1,1.2,0.2,1.8,0.2c3.7,0,6.9-2.5,7.8-6.2l18.3-80.5C145.6,21.1,142.9,16.8,138.6,15.8z M39.1,121.1c-1.7,0.6-3.6-0.4-4.2-2
			L8,41c-0.3-0.8-0.2-1.7,0.2-2.5c0.4-0.8,1.1-1.4,1.9-1.7l18-6.2l9.7,78.5c0.5,4,3.9,7,7.9,7c0.3,0,0.7,0,1-0.1l10.6-1.3
			L39.1,121.1z M75.3,107.8l-29.2,3.6c-1.8,0.2-3.4-1.1-3.7-2.9L32.3,26.7c-0.1-0.9,0.1-1.7,0.7-2.4c0.5-0.7,1.3-1.1,2.2-1.2
			l20.1-2.5l-4.3,78c-0.2,4.4,3.1,8.2,7.5,8.4L75.3,107.8L75.3,107.8z M58.7,102.2c-1.8-0.1-3.2-1.7-3.1-3.5l4.6-82.4
			c0.1-1.7,1.5-3.1,3.3-3.1l17.4,1L63.2,91.5c-0.5,2.1-0.1,4.2,1,6c1.1,1.8,2.9,3.1,5,3.5l10.3,2.3L58.7,102.2z M140.1,24.3
			l-18.3,80.5c-0.4,1.7-2.2,2.9-3.9,2.5L70.2,96.4c-0.9-0.2-1.6-0.7-2-1.5c-0.5-0.7-0.6-1.6-0.4-2.5L86.1,12
			c0.3-1.5,1.7-2.5,3.2-2.5c0.2,0,0.5,0,0.7,0.1l47.5,10.8c0.9,0.2,1.6,0.7,2,1.5C140.1,22.6,140.3,23.5,140.1,24.3z"/>
	</g>
</g>
</svg>
