<?xml version="1.0" encoding="utf-8"?>
<!-- Generator: Adobe Illustrator 21.0.0, SVG Export Plug-In . SVG Version: 6.00 Build 0)  -->
<svg version="1.1" id="Laag_1" xmlns="http://www.w3.org/2000/svg" xmlns:xlink="http://www.w3.org/1999/xlink" x="0px" y="0px"
	 viewBox="0 0 92.9 145.9" style="enable-background:new 0 0 92.9 145.9;" xml:space="preserve">
<style type="text/css">
	.st0{fill:#FFFFFF;}
</style>
<g>
	<path class="st0" d="M76.7,5.1H4.1v123.1h10.6l-0.2,13.3l3.8-2.5l3.4,2.5l0.4-13.3h54.6c6.4,0,11.6-5.2,11.6-11.6V16.6
		C88.3,10.3,83.1,5.1,76.7,5.1z"/>
	<g>
		<path class="st1" d="M76.7,2.4h-3.3v0c0-0.5-0.4-0.9-0.9-0.9h-9c-0.5,0-0.9,0.4-0.9,0.9v0H4.1c-1.5,0-2.7,1.2-2.7,2.7v123.1
			c0,1.5,1.2,2.7,2.7,2.7h8.8l-0.2,10.6c0,0.7,0.3,1.3,0.9,1.6c0.6,0.3,1.3,0.3,1.8-0.1l2.8-1.8l2.4,1.7c0.3,0.2,0.7,0.3,1.1,0.3
			c0.3,0,0.5-0.1,0.8-0.2c0.6-0.3,1-0.9,1-1.6l0.3-10.7h38.9v0.3c0,0.5,0.4,0.9,0.9,0.9h9c0.5,0,0.9-0.4,0.9-0.9v-0.3h3.3
			c7.9,0,14.3-6.4,14.3-14.3V16.6C91,8.8,84.6,2.4,76.7,2.4z M20,97.9c0-1.1-0.9-2-2-2c-1.1,0-1.9,0.9-2,2H6.8V54.4h1.5
			c0,0.1,0,0.2,0,0.2c0,1.1,0.9,2,2,2c1.1,0,2-0.9,2-2c0-0.1,0-0.2,0-0.2h50.5v43.5H20z M73.5,54.4h12.1v43.5H73.5V54.4z M76.7,7.8
			c4.9,0,8.9,4,8.9,8.9v34.2H73.5V7.8H76.7z M62.7,7.8v43.1H6.8V7.8H62.7z M20,138l-0.6-0.4c-0.6-0.4-1.4-0.5-2-0.1l-1,0.6l0.1-7.3
			h3.7L20,138z M6.8,125.5v-24h55.9v24H6.8z M76.7,125.5h-3.3v-24h12.1v15.1C85.6,121.5,81.6,125.5,76.7,125.5z"/>
		<ellipse cx="10.3" cy="62.5" rx="2" ry="2"/>
		<ellipse cx="10.3" cy="70.4" rx="2" ry="2"/>
		<ellipse cx="18.1" cy="58.6" rx="2" ry="2"/>
		<ellipse cx="18.1" cy="66.4" rx="2" ry="2"/>
		<ellipse cx="18.1" cy="74.3" rx="2" ry="2"/>
		<ellipse cx="10.3" cy="78.2" rx="2" ry="2"/>
		<ellipse cx="10.3" cy="86.1" rx="2" ry="2"/>
		<ellipse cx="10.3" cy="93.9" rx="2" ry="2"/>
		<ellipse cx="18.1" cy="82.2" rx="2" ry="2"/>
		<ellipse cx="18.1" cy="90" rx="2" ry="2"/>
	</g>
</g>
</svg>
