<?xml version="1.0" encoding="utf-8"?>
<!-- Generator: Adobe Illustrator 21.0.0, SVG Export Plug-In . SVG Version: 6.00 Build 0)  -->
<svg version="1.1" id="Laag_1" xmlns="http://www.w3.org/2000/svg" xmlns:xlink="http://www.w3.org/1999/xlink" x="0px" y="0px"
	 viewBox="0 0 149 147.1" style="enable-background:new 0 0 149 147.1;" xml:space="preserve">
<style type="text/css">
	.st0{fill:#FFFFFF;}
</style>
<g>
	<path class="st0" d="M125.9,22.8C111.5,8.4,94.3,2.4,87.5,9.3c-4.3,4.3-3.5,12.8,1.4,22.1L66.9,52.5c-21.4-9.2-40.3,9.1-40.3,9.1
		s-5.8,16.8,16.5,41.5c21,23.3,45.8,17.3,45.8,17.3c9.4-10.9,14.7-22.9,5.6-39.8L116,59c9.8,5.5,19,6.7,23.5,2.1
		C146.3,54.2,140.2,37.1,125.9,22.8z"/>
	<g>
		<path d="M128,20.6C117.4,10,104.9,3.4,95.4,3.4c-4.1,0-7.6,1.3-10,3.7c-4.2,4.2-4.8,11.1-1.9,19.5
			c0.5,1.3,1,2.7,1.7,4L66.2,48.9c-3.8-1.4-7.7-2.1-11.8-2.1c-16.8,0-29.5,12.1-30,12.6c-0.3,0.3-0.6,0.7-0.8,1.2
			c-0.2,0.7-5.5,17,13.9,40.8L9,129.5c-0.1,0.1-0.2,0.2-0.2,0.3l-5.1,13.5c-0.1,0.4,0,0.8,0.2,1c0.2,0.2,0.4,0.3,0.7,0.3
			c0.1,0,0.2,0,0.4-0.1l14.2-5.8c0.1,0,0.2-0.1,0.3-0.2l28-27.2c13,10.9,26.5,12.7,34,12.7c4.9,0,8.1-0.8,8.2-0.8
			c0.6-0.1,1.2-0.5,1.6-1c8.9-10.3,15.7-23,6.9-41.1l18.4-18.5c5.4,2.7,10.6,4.2,15.1,4.2c4.1,0,7.6-1.3,10-3.7
			C149.8,55.1,143.8,36.3,128,20.6z M90.5,39.8c-0.7-0.1-1.3,0.1-1.8,0.6c-0.9,0.9-0.9,2.3,0,3.1c0.9,0.9,2.3,0.9,3.1,0
			c0.3-0.3,0.5-0.8,0.6-1.2c1,1.3,2.1,2.6,3.2,3.9c-0.2,0.1-0.5,0.2-0.7,0.5c-0.9,0.9-0.9,2.3,0,3.1c0.9,0.9,2.3,0.9,3.1,0
			c0.2-0.2,0.3-0.4,0.4-0.6c0.2,0.2,0.3,0.3,0.5,0.5c1,1,2,1.9,2.9,2.8c-0.2,0.1-0.5,0.2-0.7,0.4c-0.9,0.9-0.9,2.3,0,3.1
			c0.9,0.9,2.3,0.9,3.1,0c0.3-0.3,0.4-0.6,0.5-1c1.6,1.3,3.3,2.5,4.9,3.7c-0.8-0.3-1.7-0.1-2.3,0.5c-0.9,0.9-0.9,2.3,0,3.1
			c0.1,0.1,0.3,0.2,0.5,0.3l-9.5,9.5c-0.1-0.2-0.2-0.4-0.3-0.5c-0.9-0.9-2.3-0.9-3.1,0c-0.9,0.9-0.9,2.3,0,3.1
			c0.2,0.2,0.3,0.2,0.5,0.3L86,84.8c-0.1-0.2-0.2-0.4-0.4-0.5c-0.9-0.9-2.3-0.9-3.1,0c-0.8,0.8-0.8,2.1-0.1,3
			c-5.2-1.5-17.9-6.9-22.5-23.8l6.2-6c0,0.6,0.2,1.2,0.6,1.6c0.9,0.9,2.3,0.9,3.1,0c0.9-0.9,0.9-2.3,0-3.1c-0.4-0.4-1-0.7-1.6-0.7
			l10.3-10c0.1,0.5,0.2,0.9,0.6,1.3c0.9,0.9,2.3,0.9,3.1,0c0.9-0.9,0.9-2.3,0-3.1c-0.3-0.3-0.8-0.5-1.2-0.6l6.9-6.7
			C88.9,37.4,89.7,38.6,90.5,39.8z M87.2,117.6c-1.1,0.2-3.2,0.4-5.9,0.4c-7.7,0-22.7-2.2-36-17c-18.2-20.2-16.7-34.7-16-37.9
			C31.8,61,42,52.9,54.5,52.9c2.3,0,4.5,0.3,6.8,0.9l-6.8,6.6c-0.8,0.7-1.1,1.8-0.8,2.9C59.8,90,82.9,93.7,83.8,93.8
			c0.1,0,0.3,0,0.4,0c0.8,0,1.6-0.3,2.1-0.9l7.1-7.2C99,98.5,95.1,108.2,87.2,117.6z M110.9,59.8c-0.1-0.1-0.1-0.3-0.3-0.4
			c0.1,0.1,0.3,0.2,0.4,0.3L110.9,59.8z M137.4,59c-1.3,1.3-3.2,1.9-5.7,1.9c-7.8,0-19-6.1-28.4-15.4c-6.6-6.6-11.6-14-14-20.8
			c-2.1-6-2-10.8,0.4-13.2c1.3-1.3,3.2-1.9,5.7-1.9c7.8,0,19,6.1,28.4,15.4C137.8,38.9,142.2,54.1,137.4,59z"/>
		<path d="M63.7,65.3c-0.9,0.9-0.9,2.3,0,3.1c0.9,0.9,2.3,0.9,3.1,0c0.9-0.9,0.9-2.3,0-3.1
			C65.9,64.5,64.5,64.5,63.7,65.3z"/>
		<path d="M69.9,71.6c-0.9,0.9-0.9,2.3,0,3.1c0.9,0.9,2.3,0.9,3.1,0c0.9-0.9,0.9-2.3,0-3.1
			C72.2,70.8,70.8,70.8,69.9,71.6z"/>
		<path d="M76.2,77.9c-0.9,0.9-0.9,2.3,0,3.1c0.9,0.9,2.3,0.9,3.1,0c0.9-0.9,0.9-2.3,0-3.1
			C78.5,77.1,77.1,77.1,76.2,77.9z"/>
		<path d="M76.2,62.3c-0.9-0.9-2.3-0.9-3.1,0c-0.9,0.9-0.9,2.3,0,3.1c0.9,0.9,2.3,0.9,3.1,0
			C77.1,64.5,77.1,63.1,76.2,62.3z"/>
		<path d="M79.3,68.6c-0.9,0.9-0.9,2.3,0,3.1c0.9,0.9,2.3,0.9,3.1,0c0.9-0.9,0.9-2.3,0-3.1
			C81.6,67.7,80.2,67.7,79.3,68.6z"/>
		<ellipse transform="matrix(0.708 -0.7062 0.7062 0.708 -28.5163 83.8879)" cx="87.2" cy="76.4" rx="2.2" ry="2.2"/>
		<path d="M79.3,56c0.9-0.9,0.9-2.3,0-3.1c-0.9-0.9-2.3-0.9-3.1,0c-0.9,0.9-0.9,2.3,0,3.1C77,56.9,78.4,56.9,79.3,56z"
			/>
		<path d="M82.5,62.3c0.9,0.9,2.3,0.9,3.1,0c0.9-0.9,0.9-2.3,0-3.1c-0.9-0.9-2.3-0.9-3.1,0C81.6,60,81.6,61.4,82.5,62.3
			z"/>
		<path d="M88.7,68.6c0.9,0.9,2.3,0.9,3.1,0c0.9-0.9,0.9-2.3,0-3.1c-0.9-0.9-2.3-0.9-3.1,0
			C87.9,66.3,87.9,67.7,88.7,68.6z"/>
		<path d="M88.7,52.9c0.9-0.9,0.9-2.3,0-3.1c-0.9-0.9-2.3-0.9-3.1,0c-0.9,0.9-0.9,2.3,0,3.1
			C86.4,53.8,87.8,53.8,88.7,52.9z"/>
		<ellipse transform="matrix(0.7086 -0.7056 0.7056 0.7086 -13.4639 82.7116)" cx="93.4" cy="57.7" rx="2.2" ry="2.2"/>
		<path d="M101.3,65.5c0.9-0.9,0.9-2.3,0-3.1c-0.9-0.9-2.3-0.9-3.1,0c-0.9,0.9-0.9,2.3,0,3.1
			C99,66.4,100.4,66.4,101.3,65.5z"/>
	</g>
</g>
</svg>
