<?xml version="1.0" encoding="utf-8"?>
<!-- Generator: Adobe Illustrator 21.0.0, SVG Export Plug-In . SVG Version: 6.00 Build 0)  -->
<svg version="1.1" id="Laag_1" xmlns="http://www.w3.org/2000/svg" xmlns:xlink="http://www.w3.org/1999/xlink" x="0px" y="0px"
	 viewBox="0 0 149 147.1" style="enable-background:new 0 0 149 147.1;" xml:space="preserve">
<style type="text/css">
	.st0{fill:#FFFFFF;}
</style>
<g>
	<path class="st0" d="M126.9,113.2h15c0,0-8.8-12-8.8-84.5V11H31v10.5H19.5v12.8H7.6V52c0,84,8.8,84.5,8.8,84.5h102.1
		c0,0-1.9-2.6-4-12.8h15.8C130.4,123.7,128.8,121.5,126.9,113.2z"/>
	<g>
		<circle cx="59.9" cy="103.5" r="2.2"/>
		<circle cx="51" cy="103.5" r="2.2"/>
		<circle cx="68.7" cy="103.5" r="2.2"/>
		<circle cx="77.5" cy="103.5" r="2.2"/>
		<circle cx="86.3" cy="103.5" r="2.2"/>
		<circle cx="55.5" cy="94.7" r="2.2"/>
		<circle cx="46.6" cy="94.7" r="2.2"/>
		<circle cx="64.3" cy="94.7" r="2.2"/>
		<circle cx="51" cy="85.9" r="2.2"/>
		<circle cx="42.2" cy="85.9" r="2.2"/>
		<circle cx="46.6" cy="77.1" r="2.2"/>
		<circle cx="42.2" cy="68.2" r="2.2"/>
		<circle cx="59.9" cy="85.9" r="2.2"/>
		<path d="M117.7,26.5H47.9c-1.2,0-2.2,1-2.2,2.2c0,1.2,1,2.2,2.2,2.2h69.8c1.2,0,2.2-1,2.2-2.2C119.9,27.5,118.9,26.5,117.7,26.5z"
			/>
		<path d="M144.8,110.8c-1.2-2.3-8-18.2-8-82.1V11c0-2-1.6-3.7-3.7-3.7H31c-2,0-3.7,1.6-3.7,3.7v6.9h-7.8c-2,0-3.7,1.6-3.7,3.7v9.1
			H7.6c-2,0-3.7,1.6-3.7,3.7V52c0,87.5,9.3,88,12.5,88.2h102.1c0,0,0,0,0.1,0c2,0,3.7-1.6,3.7-3.7c0-0.9-0.3-1.7-0.9-2.4
			c-0.4-0.7-1.2-2.7-2.3-6.8h11.3c0,0,0,0,0.1,0c2,0,3.7-1.6,3.7-3.7c0-0.9-0.3-1.7-0.9-2.4c-0.3-0.6-0.9-1.9-1.7-4.5h10.3
			c0,0,0,0,0.1,0c2,0,3.7-1.6,3.7-3.7C145.7,112.3,145.3,111.4,144.8,110.8z M18,132.9c-1.6-3-6.7-17.3-6.7-80.8v-14h4.5v1.2
			c0,87.5,9.3,88,12.5,88.2h83.4c0.5,2.2,1,4,1.5,5.5L18,132.9z M29.8,120.1c-1.6-3-6.7-17.3-6.7-80.8v-14h4.2v3.4
			c0,87.5,9.3,88,12.5,88.2h84.3c0.3,1.2,0.6,2.3,0.9,3.2L29.8,120.1z M41.3,109.5c-1.6-3-6.7-17.3-6.7-80.8v-14h94.8v14
			c0,50,4.2,71.8,7,80.8L41.3,109.5z"/>
	</g>
</g>
</svg>
